<svg xmlns="http://www.w3.org/2000/svg" xmlns:xlink="http://www.w3.org/1999/xlink" width="44" height="44" viewBox="0 0 44 44">
  <defs>
    <clipPath id="clip-path">
      <rect id="Rectangle_18783" data-name="Rectangle 18783" width="44" height="44" transform="translate(132 155)" fill="#fff" stroke="#707070" stroke-width="1"/>
    </clipPath>
  </defs>
  <g id="Mask_Group_14760" data-name="Mask Group 14760" transform="translate(-132 -155)" clip-path="url(#clip-path)">
    <g id="add-user" transform="translate(133.015 155)">
      <path id="Path_43731" data-name="Path 43731" d="M21.533,21.026a1.7,1.7,0,0,1-1.367-1.669V15.519H12.635v3.838a1.7,1.7,0,0,1-1.367,1.669l-.918.184v6.163h12.1V21.21Z" transform="translate(2.866 5.82)" fill="#fce0a2"/>
      <path id="Path_43732" data-name="Path 43732" d="M14.823,15.519v5.256a1.7,1.7,0,0,0,1.367,1.669l4.584,1.117V21.21l-.918-.184a1.7,1.7,0,0,1-1.367-1.669V15.519Z" transform="translate(4.543 5.82)" fill="#f2ca91"/>
      <path id="Path_43733" data-name="Path 43733" d="M32.8,21.686,25.155,19.3a.564.564,0,0,0-.519.1l-4.807,3.826L15.022,19.4a.564.564,0,0,0-.519-.1L6.855,21.686a7.872,7.872,0,0,0-5.648,7.551v5.032a.725.725,0,0,0,.725.725H37.726a.725.725,0,0,0,.725-.725V29.237A7.871,7.871,0,0,0,32.8,21.686Z" transform="translate(-0.563 7.228)" fill="#4cbad8"/>
      <path id="Path_43734" data-name="Path 43734" d="M27.008,21.686,19.36,19.3a.564.564,0,0,0-.519.1L16.66,21.135l6.651,2.074a7.872,7.872,0,0,1,5.648,7.551v4.235h2.972a.725.725,0,0,0,.725-.725V29.237A7.872,7.872,0,0,0,27.008,21.686Z" transform="translate(5.232 7.228)" fill="#37a6c4"/>
      <g id="Group_15508" data-name="Group 15508" transform="translate(8.257 12.897)">
        <path id="Path_43735" data-name="Path 43735" d="M22.136,13.817h-1.53V9.38h1.53a1.428,1.428,0,0,1,1.428,1.428v1.582A1.428,1.428,0,0,1,22.136,13.817Z" transform="translate(-1.546 -9.38)" fill="#f2ca8f"/>
        <path id="Path_43736" data-name="Path 43736" d="M8.171,13.817H9.7V9.38H8.171a1.428,1.428,0,0,0-1.428,1.428v1.582A1.428,1.428,0,0,0,8.171,13.817Z" transform="translate(-6.744 -9.38)" fill="#f2ca8f"/>
      </g>
      <path id="Path_43737" data-name="Path 43737" d="M17.187,23.264h0A8.933,8.933,0,0,1,8.253,14.33V11.82a8.933,8.933,0,0,1,8.933-8.933h0A8.933,8.933,0,0,1,26.12,11.82V14.33A8.933,8.933,0,0,1,17.187,23.264Z" transform="translate(2.08 1.082)" fill="#fce0a2"/>
      <path id="Path_43738" data-name="Path 43738" d="M15.253,2.886h0a8.968,8.968,0,0,0-1.843.191A8.936,8.936,0,0,1,20.5,11.82V14.33a8.936,8.936,0,0,1-7.09,8.743,8.968,8.968,0,0,0,1.843.191h0a8.933,8.933,0,0,0,8.933-8.933V11.82A8.933,8.933,0,0,0,15.253,2.886Z" transform="translate(4.013 1.082)" fill="#f2ca91"/>
      <path id="Path_43739" data-name="Path 43739" d="M19.223.469h-3.04A9.306,9.306,0,0,0,6.877,9.775v3.676a1.427,1.427,0,0,1,1.245-.73H8.77A8.915,8.915,0,0,1,9.321,9.63c3.95-1.119,7.965,1.935,12.331,1.935a9.013,9.013,0,0,0,4.676-1.085h.023a8.949,8.949,0,0,1,.285,2.241h.648a1.426,1.426,0,0,1,1.245.73V9.775A9.306,9.306,0,0,0,19.223.469Z" transform="translate(1.563 0.176)" fill="#f9a058"/>
      <path id="Path_43740" data-name="Path 43740" d="M16.773.469h-3.04c-.108,0-.216,0-.323.006a9.306,9.306,0,0,1,8.983,9.3v1.354a6.938,6.938,0,0,0,1.485-.648H23.9a8.949,8.949,0,0,1,.285,2.241h.648a1.426,1.426,0,0,1,1.245.73V9.775A9.306,9.306,0,0,0,16.773.469Z" transform="translate(4.013 0.176)" fill="#ef8d43"/>
      <circle id="Ellipse_560" data-name="Ellipse 560" cx="7.637" cy="7.637" r="7.637" transform="translate(26.05 28.081)" fill="#e9f6ff"/>
      <path id="Path_43741" data-name="Path 43741" d="M25.744,20.422a7.649,7.649,0,0,0-1.854.227,7.639,7.639,0,0,1,0,14.82,7.638,7.638,0,1,0,1.854-15.048Z" transform="translate(7.943 7.658)" fill="#ccdfed"/>
      <g id="Group_15509" data-name="Group 15509" transform="translate(11.403 26.504)">
        <path id="Path_43742" data-name="Path 43742" d="M16.895,23.224l-1.949,1.7a.815.815,0,0,1-1.112-.037l-4.8-4.8,2.538-.791a.564.564,0,0,1,.519.1Z" transform="translate(-9.032 -19.276)" fill="#2195bd"/>
        <path id="Path_43743" data-name="Path 43743" d="M14.75,23.224l1.949,1.7a.815.815,0,0,0,1.112-.037l4.8-4.8L20.076,19.3a.564.564,0,0,0-.519.1Z" transform="translate(-6.887 -19.276)" fill="#2195bd"/>
      </g>
      <path id="Path_43744" data-name="Path 43744" d="M30.412,26.678H27.13V23.4a.644.644,0,1,0-1.289,0v3.282H22.559a.644.644,0,0,0,0,1.289h3.282v3.282a.644.644,0,0,0,1.289,0V27.967h3.282a.644.644,0,1,0,0-1.289Z" transform="translate(7.202 8.532)"/>
      <path id="Path_43745" data-name="Path 43745" d="M34.426,27.436a8.251,8.251,0,0,0-2.639.431L28.06,26.706h0l-2.538-.791a1.2,1.2,0,0,0-.782.023,1.065,1.065,0,0,1-.326-.762V23.913a9.621,9.621,0,0,0,4.818-5.934h.353a2.074,2.074,0,0,0,2.072-2.072V14.325a2.059,2.059,0,0,0-.183-.849V9.951a9.867,9.867,0,0,0-.918-4.18.644.644,0,1,0-1.169.542,8.588,8.588,0,0,1,.8,3.638v2.391c-.046-.014-.093-.026-.141-.037l-.009,0a2.056,2.056,0,0,0-.28-.042l-.033,0c-.045,0-.089,0-.135-.005h-.029c-.006-.086-.013-.171-.021-.257l0-.038c0-.013,0-.027,0-.04q-.01-.1-.023-.2L29.5,11.65q-.016-.12-.034-.24l0-.015v-.006q-.024-.15-.053-.3l-.009-.045,0-.023q-.018-.092-.039-.185l0-.017-.01-.048,0-.02c-.02-.086-.04-.172-.062-.257a.642.642,0,0,0-.077-.176c0-.006-.007-.013-.01-.019s-.015-.018-.022-.028a.643.643,0,0,0-.515-.26h-.032a.645.645,0,0,0-.32.09,8.482,8.482,0,0,1-4.347.995c-.224,0-.447-.009-.671-.025a11.679,11.679,0,0,1-1.292-.172l-.046-.008a23.342,23.342,0,0,1-2.426-.626c-.289-.088-.577-.178-.864-.268-2.351-.737-4.782-1.5-7.209-.811a.644.644,0,0,0-.429.4v0c-.034.092-.067.188-.1.291l-.021.062-.006.017-.01.031c-.021.067-.042.136-.063.205-.01.034-.02.069-.029.1l-.017.061-.01.037c0,.015-.007.03-.011.045q-.036.135-.068.271c-.005.022-.012.044-.016.066l0,.015-.01.048c-.008.035-.015.071-.023.106-.017.079-.032.158-.046.234l0,.011,0,.018c0,.026-.009.052-.013.078-.011.063-.021.129-.031.2-.006.043-.013.086-.019.129l0,.016c-.01.071-.018.145-.026.22q-.007.064-.013.128c0,.01,0,.021,0,.031l-.005.058c0,.038-.006.073-.009.109s0,.052-.007.078H10.42c-.045,0-.09,0-.134,0l-.033,0a2.063,2.063,0,0,0-.279.042l-.01,0c-.047.011-.094.023-.14.037V9.951a8.671,8.671,0,0,1,8.661-8.661h3.04a8.584,8.584,0,0,1,6.283,2.7.644.644,0,0,0,.935-.887A9.861,9.861,0,0,0,21.525,0h-3.04a9.962,9.962,0,0,0-9.95,9.95v3.525a2.059,2.059,0,0,0-.183.849v1.582a2.074,2.074,0,0,0,2.072,2.072h.353a9.621,9.621,0,0,0,4.818,5.934v1.263a1.065,1.065,0,0,1-.326.762,1.206,1.206,0,0,0-.782-.023L6.844,28.3a8.444,8.444,0,0,0-3.286,1.837.644.644,0,1,0,.862.958,7.165,7.165,0,0,1,2.793-1.56l.01,0,4.739-1.477,4.527,4.523a1.463,1.463,0,0,0,1.992.066L20,31.309l1.524,1.333a1.463,1.463,0,0,0,1.992-.066l4.527-4.523,2.013.628A8.27,8.27,0,0,0,28.741,29.7l-.061.059-.086.084a8.258,8.258,0,0,0-2.431,5.317l0,.041q-.006.1-.01.206c0,.02,0,.04,0,.059,0,.083,0,.166,0,.25s0,.142,0,.213v.01a8.22,8.22,0,0,0,2.422,5.637H6.858v-5.86a.644.644,0,1,0-1.289,0v5.86H2.108a.081.081,0,0,1-.081-.081V36.465a7.165,7.165,0,0,1,.708-3.119.644.644,0,1,0-1.162-.557,8.445,8.445,0,0,0-.834,3.676V41.5a1.371,1.371,0,0,0,1.37,1.37H30.249a8.281,8.281,0,1,0,4.176-15.431ZM29.5,16.679q.039-.3.06-.6c0-.023,0-.046,0-.068q.007-.114.012-.229c0-.026,0-.052,0-.077,0-.1,0-.195,0-.293V13.541h.006a.782.782,0,0,1,.093.006l.024,0a.752.752,0,0,1,.075.015l.018,0a.785.785,0,0,1,.178.076l.009.006a.782.782,0,0,1,.074.05l.008.006a.783.783,0,0,1,.138.14l.008.01a.8.8,0,0,1,.054.083h0a.778.778,0,0,1,.1.381v1.582a.784.784,0,0,1-.783.783H29.5Zm-19.075.011a.784.784,0,0,1-.783-.783V14.325a.772.772,0,0,1,.154-.464l.009-.012a.783.783,0,0,1,.137-.139l.009-.007a.794.794,0,0,1,.072-.049l.011-.007a.782.782,0,0,1,.178-.075l.019,0c.024-.006.049-.011.074-.015l.025,0a.776.776,0,0,1,.093-.006h0l0,1.871c0,.1,0,.2,0,.293,0,.026,0,.051,0,.077q0,.115.012.23c0,.023,0,.046,0,.068q.021.3.06.6v.011Zm1.471.439q-.01-.047-.02-.1t-.02-.106q-.011-.059-.021-.119c0-.029-.01-.058-.014-.087q-.011-.07-.021-.14c0-.024-.007-.047-.01-.071-.007-.052-.013-.1-.019-.156,0-.02,0-.04-.007-.06-.006-.055-.011-.111-.016-.166,0-.018,0-.035,0-.053,0-.057-.008-.114-.012-.171,0-.017,0-.033,0-.05,0-.058-.005-.116-.007-.175,0-.016,0-.031,0-.047q0-.11,0-.221V12.907s0-.007,0-.01h0c0-.092,0-.183.005-.274,0-.025,0-.048,0-.073v-.007c0-.081.009-.163.014-.243,0-.034,0-.068.008-.1.007-.08.014-.161.024-.241,0-.031.007-.06.011-.09q.013-.1.028-.2c0-.03.009-.061.013-.09.013-.084.029-.168.045-.251l.012-.062q.026-.129.056-.257l.017-.072q.03-.121.063-.242c.024-.086.05-.171.076-.255.007-.023.014-.047.021-.07l0-.015,0-.005q.184-.041.368-.069a10.1,10.1,0,0,1,4.282.493c.495.141,1,.3,1.5.457a19.052,19.052,0,0,0,5.683,1.159q.158,0,.313,0a10.268,10.268,0,0,0,3.925-.779c0,.011,0,.023,0,.035q.019.124.034.249c0,.033.007.065.011.1q.011.1.02.207c0,.035.006.069.008.1.005.07.009.14.012.21,0,.025,0,.051,0,.076v.02c0,.1.006.2.006.294h0s0,0,0,.007v2.508q0,.11,0,.221c0,.016,0,.031,0,.047,0,.058,0,.117-.007.175,0,.017,0,.033,0,.05,0,.057-.007.114-.012.171,0,.018,0,.035,0,.053,0,.055-.01.111-.016.166,0,.02,0,.04-.007.06-.006.052-.012.1-.019.156,0,.024-.007.048-.01.071q-.01.07-.021.14c0,.029-.01.058-.014.087s-.014.079-.021.119-.013.07-.02.106-.013.063-.02.1a8.307,8.307,0,0,1-7.468,6.549l-.033,0-.175.011-.087,0-.127,0L20,23.7l-.219,0-.127,0-.087,0-.175-.011-.033,0A8.307,8.307,0,0,1,11.895,17.128Zm5.737,14.543a.171.171,0,0,1-.232-.008l-4.048-4.045,1.479-.461L19,30.476ZM16.324,26.7a2.335,2.335,0,0,0,.559-1.524V24.47c.166.057.333.108.5.156h0q.211.06.424.11l.06.014q.185.042.372.077l.078.015.192.032.173.025.22.028.218.023.118.01q.16.013.322.02l.087,0c.117,0,.235.007.353.007s.236,0,.353-.007l.087,0q.162-.007.322-.02l.118-.01.218-.023.22-.028.173-.025.192-.032.078-.015q.187-.035.372-.077l.06-.014q.213-.05.424-.11h0c.168-.048.336-.1.5-.156v.706a2.336,2.336,0,0,0,.559,1.524L20,29.629Zm6.285,4.964a.171.171,0,0,1-.232.008l-1.367-1.2,2.577-2.051,1.531-1.218h0l.061-.048,1.479.461ZM34.426,42.711A7,7,0,0,1,27.444,36.1c0-.02,0-.041,0-.061,0-.108-.008-.216-.008-.325s0-.213.008-.319c0-.039,0-.078.007-.117q.006-.1.015-.193c0-.05.009-.1.015-.149s.011-.091.017-.136a7.024,7.024,0,0,1,1.624-3.632c.031-.037.063-.074.1-.11l.086-.094c.049-.053.1-.106.15-.158l.051-.052a6.991,6.991,0,1,1,4.925,11.952Z" transform="translate(-0.738)"/>
    </g>
  </g>
</svg>
