<svg xmlns="http://www.w3.org/2000/svg" xmlns:xlink="http://www.w3.org/1999/xlink" width="46" height="46" viewBox="0 0 46 46">
  <defs>
    <filter id="Ellipse_391" x="0" y="0" width="46" height="46" filterUnits="userSpaceOnUse">
      <feOffset dy="3" input="SourceAlpha"/>
      <feGaussianBlur stdDeviation="3" result="blur"/>
      <feFlood flood-opacity="0.161"/>
      <feComposite operator="in" in2="blur"/>
      <feComposite in="SourceGraphic"/>
    </filter>
    <clipPath id="clip-path">
      <rect id="Rectangle_3933" data-name="Rectangle 3933" width="16" height="16" transform="translate(-912 2606)" fill="#fff" stroke="#707070" stroke-width="1"/>
    </clipPath>
  </defs>
  <g id="Group_14235" data-name="Group 14235" transform="translate(927 -2594)">
    <g transform="matrix(1, 0, 0, 1, -927, 2594)" filter="url(#Ellipse_391)">
      <circle id="Ellipse_391-2" data-name="Ellipse 391" cx="14" cy="14" r="14" transform="translate(9 6)" fill="#29cb97"/>
    </g>
    <g id="Mask_Group_136" data-name="Mask Group 136" clip-path="url(#clip-path)">
      <g id="bank_2_" data-name="bank (2)" transform="translate(-912 2606)">
        <path id="Path_42535" data-name="Path 42535" d="M15.563,13.969H.5a.637.637,0,0,0-.5.563v1A.469.469,0,0,0,.469,16H15.531A.469.469,0,0,0,16,15.531v-1A.655.655,0,0,0,15.563,13.969Z" fill="#fff"/>
        <path id="Path_42536" data-name="Path 42536" d="M15.711,3.161,8.18.036a.469.469,0,0,0-.359,0L.289,3.161A.469.469,0,0,0,0,3.594v.938A.469.469,0,0,0,.469,5H15.531A.469.469,0,0,0,16,4.531V3.594a.469.469,0,0,0-.289-.433Zm-4.9.433H5.188a.469.469,0,0,1,0-.937h5.625a.469.469,0,0,1,0,.938Z" fill="#fff"/>
        <path id="Path_42537" data-name="Path 42537" d="M.891,12.188v.938H4.484v-.937a.469.469,0,0,0-.469-.469H1.359A.469.469,0,0,0,.891,12.188Z" fill="#fff"/>
        <path id="Path_42538" data-name="Path 42538" d="M1.516,5.938H3.859v4.844H1.516Z" fill="#fff"/>
        <path id="Path_42539" data-name="Path 42539" d="M12.141,5.938h2.344v4.844H12.141Z" fill="#fff"/>
        <path id="Path_42540" data-name="Path 42540" d="M11.516,12.188v.938h3.594v-.937a.469.469,0,0,0-.469-.469H11.984A.469.469,0,0,0,11.516,12.188Z" fill="#fff"/>
        <path id="Path_42541" data-name="Path 42541" d="M8,10.938a.469.469,0,0,1-.469-.469.469.469,0,0,0-.937,0,1.408,1.408,0,0,0,.938,1.326v.237a.469.469,0,0,0,.938,0v-.237A1.406,1.406,0,0,0,8,9.063a.469.469,0,1,1,.469-.469.469.469,0,0,0,.938,0,1.408,1.408,0,0,0-.937-1.326V7.031a.469.469,0,0,0-.937,0v.237A1.406,1.406,0,0,0,8,10a.469.469,0,0,1,0,.938Z" fill="#fff"/>
      </g>
    </g>
  </g>
</svg>
