<svg xmlns="http://www.w3.org/2000/svg" xmlns:xlink="http://www.w3.org/1999/xlink" width="28" height="28" viewBox="0 0 28 28">
  <defs>
    <clipPath id="clip-path">
      <rect id="Rectangle_5256" data-name="Rectangle 5256" width="28" height="28" transform="translate(-16007 -5182)" fill="#fff" stroke="#707070" stroke-width="1"/>
    </clipPath>
  </defs>
  <g id="Mask_Group_15065" data-name="Mask Group 15065" transform="translate(16007 5182)" clip-path="url(#clip-path)">
    <g id="Cash" transform="translate(-16007.583 -5180.225)">
      <g id="Group_15146" data-name="Group 15146">
        <g id="Group_15115" data-name="Group 15115">
          <g id="Group_15102" data-name="Group 15102">
            <path id="Path_25168" data-name="Path 25168" d="M28.583,13.067,5.1,18.521.594,12.057,24.076,6.6Z" fill="#47a047"/>
          </g>
          <g id="Group_15103" data-name="Group 15103">
            <path id="Path_25169" data-name="Path 25169" d="M25.978,12.522l-8.866,2.061a1.794,1.794,0,0,0,.723-2.774,3.609,3.609,0,0,0-1.147-1.017,5.415,5.415,0,0,0-2.707-.692l8.871-2.062a1.639,1.639,0,0,1,1.116.129.785.785,0,0,1,.228.2l2.356,3.374c.212.31-.041.656-.573.78Z" fill="#96d696"/>
          </g>
          <g id="Group_15104" data-name="Group 15104">
            <path id="Path_25170" data-name="Path 25170" d="M23.232,8.559a.423.423,0,0,1,.135.117c.126.183-.024.389-.34.461a.951.951,0,0,1-.659-.077.408.408,0,0,1-.135-.117c-.129-.181.024-.389.333-.461a.968.968,0,0,1,.666.077Z" fill="#47a047"/>
          </g>
          <g id="Group_15105" data-name="Group 15105">
            <path id="Path_25171" data-name="Path 25171" d="M24.277,12.55c-.042.1-.16.17-.35.215a.892.892,0,0,1-.513-.015.8.8,0,0,1-.12-.058.737.737,0,0,1-.237-.218.355.355,0,0,1-.074-.341.47.47,0,0,1,.354-.213.866.866,0,0,1,.51.013.753.753,0,0,1,.128.058.7.7,0,0,1,.233.218.35.35,0,0,1,.068.341Zm-.433.1c.117-.027.187-.074.2-.143a.292.292,0,0,0-.073-.24.554.554,0,0,0-.188-.18.439.439,0,0,0-.047-.024.487.487,0,0,0-.316-.023c-.117.027-.184.076-.2.145a.313.313,0,0,0,.071.242.6.6,0,0,0,.191.175.5.5,0,0,0,.047.024.473.473,0,0,0,.319.021" fill="#414a61"/>
          </g>
          <g id="Group_15106" data-name="Group 15106">
            <path id="Path_25172" data-name="Path 25172" d="M22.458,12.146l.567.817-.227.051-.481-.7-.286.066-.086-.122Z" fill="#414a61"/>
          </g>
          <g id="Group_15107" data-name="Group 15107">
            <path id="Path_25173" data-name="Path 25173" d="M9.139,13.242a1.633,1.633,0,0,1,.529.462c.494.706-.093,1.51-1.315,1.792a3.733,3.733,0,0,1-2.57-.3,1.615,1.615,0,0,1-.529-.464c-.494-.706.1-1.509,1.315-1.792a3.728,3.728,0,0,1,2.57.305Z" fill="#47a047"/>
          </g>
          <g id="Group_15108" data-name="Group 15108">
            <path id="Path_25174" data-name="Path 25174" d="M19.888,9.333a.416.416,0,0,1,.137.12c.126.183-.024.389-.34.461a.951.951,0,0,1-.659-.077.408.408,0,0,1-.135-.117c-.129-.181.024-.389.336-.463A.961.961,0,0,1,19.888,9.333Z" fill="#47a047"/>
          </g>
          <g id="Group_15109" data-name="Group 15109">
            <path id="Path_25175" data-name="Path 25175" d="M21.558,8.947a.417.417,0,0,1,.137.12c.13.181-.024.388-.339.461a.97.97,0,0,1-.661-.081.425.425,0,0,1-.135-.117c-.126-.183.024-.388.339-.461a.952.952,0,0,1,.66.078Z" fill="#47a047"/>
          </g>
          <g id="Group_15110" data-name="Group 15110">
            <path id="Path_25176" data-name="Path 25176" d="M25.667,12.228c-.042.1-.16.17-.35.215a.892.892,0,0,1-.513-.015.794.794,0,0,1-.12-.058.762.762,0,0,1-.24-.22.356.356,0,0,1-.071-.341.475.475,0,0,1,.35-.215.892.892,0,0,1,.513.015.825.825,0,0,1,.125.058.686.686,0,0,1,.233.216.346.346,0,0,1,.073.345Zm-.433.1c.117-.027.187-.074.2-.143a.3.3,0,0,0-.073-.24.567.567,0,0,0-.188-.18c-.015-.009-.03-.016-.046-.024a.477.477,0,0,0-.316-.023c-.117.027-.19.076-.2.145a.292.292,0,0,0,.067.24.628.628,0,0,0,.193.179.472.472,0,0,0,.368.046" fill="#414a61"/>
          </g>
          <g id="Group_15111" data-name="Group 15111">
            <path id="Path_25177" data-name="Path 25177" d="M12.483,14.332a5.444,5.444,0,0,0,2.711.7L6.326,17.092a1.617,1.617,0,0,1-1.117-.133.712.712,0,0,1-.23-.2L2.625,13.38c-.212-.309.043-.655.571-.779l8.87-2.06a1.8,1.8,0,0,0-.731,2.777,3.551,3.551,0,0,0,1.148,1.014ZM8.351,15.5c1.221-.282,1.808-1.086,1.315-1.793a1.633,1.633,0,0,0-.529-.462,3.727,3.727,0,0,0-2.57-.305c-1.219.284-1.808,1.086-1.315,1.793a1.615,1.615,0,0,0,.529.464,3.733,3.733,0,0,0,2.57.3" fill="#96d696"/>
          </g>
          <g id="Group_15112" data-name="Group 15112">
            <path id="Path_25178" data-name="Path 25178" d="M28.583,13.067l-.009,3.369L5.091,21.892,5.1,18.523Z" fill="#47a047"/>
          </g>
          <g id="Group_15113" data-name="Group 15113">
            <path id="Path_25179" data-name="Path 25179" d="M28.577,15.331,5.095,20.744v.242l23.481-5.412Z" fill="#5faf5f"/>
            <path id="Path_25180" data-name="Path 25180" d="M28.578,14.9,5.1,20.318v.242l23.482-5.413Z" fill="#5faf5f"/>
            <path id="Path_25181" data-name="Path 25181" d="M28.583,13.2,5.1,18.614v.242l23.483-5.413Z" fill="#5faf5f"/>
            <path id="Path_25182" data-name="Path 25182" d="M28.583,14.052,5.1,19.466v.242L28.58,14.295Z" fill="#5faf5f"/>
            <path id="Path_25183" data-name="Path 25183" d="M28.579,14.479,5.1,19.892v.242L28.579,14.72Z" fill="#5faf5f"/>
            <path id="Path_25184" data-name="Path 25184" d="M28.575,16.183,5.092,21.6v.242l23.482-5.413Z" fill="#5faf5f"/>
            <path id="Path_25185" data-name="Path 25185" d="M28.583,13.627,5.1,19.039v.242l23.484-5.413Z" fill="#5faf5f"/>
            <path id="Path_25186" data-name="Path 25186" d="M28.576,15.757,5.094,21.17v.242L28.576,16Z" fill="#5faf5f"/>
          </g>
          <path id="Path_25187" data-name="Path 25187" d="M13.836,16.493l-.011,3.369,3.369-.783L17.2,15.71Z" fill="#ed5d71"/>
          <path id="Path_25188" data-name="Path 25188" d="M14.264,16.392l-.009,3.369,3.369-.783.009-3.369Z" fill="#e3e7f0"/>
          <g id="Group_15114" data-name="Group 15114">
            <path id="Path_25189" data-name="Path 25189" d="M5.1,18.523l-.01,3.369L.583,15.429l.009-3.369Z" fill="#5faf5f"/>
          </g>
        </g>
        <g id="Group_15144" data-name="Group 15144">
          <g id="Group_15142" data-name="Group 15142">
            <g id="Group_15123" data-name="Group 15123">
              <g id="Group_15122" data-name="Group 15122">
                <g id="Group_15116" data-name="Group 15116">
                  <path id="Path_25190" data-name="Path 25190" d="M26.376,12.283l-.009,3.554-7.944,4.616.01-3.554Z" fill="#47a047"/>
                </g>
                <g id="Group_15117" data-name="Group 15117">
                  <path id="Path_25191" data-name="Path 25191" d="M18.433,16.9l-.01,3.554L1.575,10.726l.011-3.551Z" fill="#47a047"/>
                </g>
                <g id="Group_15118" data-name="Group 15118">
                  <path id="Path_25192" data-name="Path 25192" d="M1.58,9.081,18.427,18.8v-.182L1.581,8.9Z" fill="#77cb77"/>
                  <path id="Path_25193" data-name="Path 25193" d="M1.581,8.661l16.847,9.722V18.2L1.582,8.479Z" fill="#77cb77"/>
                  <path id="Path_25194" data-name="Path 25194" d="M18.433,16.9,1.586,7.175V7.4L18.433,17.12Z" fill="#77cb77"/>
                  <path id="Path_25195" data-name="Path 25195" d="M1.575,10.727l16.848,9.726V20.3L1.575,10.583Z" fill="#77cb77"/>
                  <path id="Path_25196" data-name="Path 25196" d="M1.578,9.923l16.847,9.721v-.181L1.579,9.742Z" fill="#77cb77"/>
                  <path id="Path_25197" data-name="Path 25197" d="M1.575,10.344l16.849,9.723v-.182L1.575,10.162Z" fill="#77cb77"/>
                  <path id="Path_25198" data-name="Path 25198" d="M1.579,9.5l16.847,9.722v-.182L1.58,9.32Z" fill="#77cb77"/>
                  <path id="Path_25199" data-name="Path 25199" d="M18.433,17.359,1.584,7.638v.179l16.849,9.724Z" fill="#77cb77"/>
                  <path id="Path_25200" data-name="Path 25200" d="M1.583,8.058V8.24L18.43,17.961V17.78Z" fill="#77cb77"/>
                </g>
                <g id="Group_15119" data-name="Group 15119">
                  <path id="Path_25201" data-name="Path 25201" d="M11.99,13.179l-.01,3.554L8.983,15l.01-3.554Z" fill="#d3dbea"/>
                </g>
                <g id="Group_15120" data-name="Group 15120">
                  <path id="Path_25202" data-name="Path 25202" d="M8.678,11.267l-.01,3.554L8.986,15,9,11.45Z" fill="#e34454"/>
                  <path id="Path_25203" data-name="Path 25203" d="M11.99,13.18l-.01,3.554.317.183.01-3.554Z" fill="#e34454"/>
                </g>
                <g id="Group_15121" data-name="Group 15121">
                  <path id="Path_25204" data-name="Path 25204" d="M26.376,12.283,18.433,16.9,1.586,7.175,9.529,2.557Z" fill="#47a047"/>
                </g>
              </g>
            </g>
            <g id="Group_15138" data-name="Group 15138">
              <g id="Group_15128" data-name="Group 15128">
                <g id="Group_15124" data-name="Group 15124">
                  <path id="Path_25205" data-name="Path 25205" d="M18.04,13.9c.086.05.117.106.081.168a.487.487,0,0,1-.212.191.944.944,0,0,1-.332.125.416.416,0,0,1-.287-.048q-.125-.072-.084-.166a.5.5,0,0,1,.212-.195.947.947,0,0,1,.333-.121A.426.426,0,0,1,18.04,13.9Z" fill="#96d696"/>
                </g>
                <g id="Group_15125" data-name="Group 15125">
                  <path id="Path_25206" data-name="Path 25206" d="M18.352,14.076a.539.539,0,0,1-.273.281,1.167,1.167,0,0,1-.483.159.74.74,0,0,1-.454-.094c-.136-.079-.192-.168-.165-.263a.542.542,0,0,1,.276-.279,1.18,1.18,0,0,1,.48-.16.739.739,0,0,1,.451.1C18.324,13.9,18.38,13.982,18.352,14.076Zm-.775.307a.944.944,0,0,0,.332-.125.487.487,0,0,0,.212-.191c.034-.062.006-.117-.081-.168a.426.426,0,0,0-.292-.047.947.947,0,0,0-.333.121.5.5,0,0,0-.212.195q-.041.094.084.166a.416.416,0,0,0,.287.048" fill="#4c5671"/>
                </g>
                <g id="Group_15126" data-name="Group 15126">
                  <path id="Path_25207" data-name="Path 25207" d="M19.036,14.475c.19.11.058.249-.131.359a.632.632,0,0,1-.619.077c-.188-.109-.062-.251.128-.361a.947.947,0,0,1,.333-.121.426.426,0,0,1,.292.047Z" fill="#96d696"/>
                </g>
                <g id="Group_15127" data-name="Group 15127">
                  <path id="Path_25208" data-name="Path 25208" d="M19.075,14.933a.943.943,0,0,1-.937.064c-.292-.169-.181-.372.111-.541a1.179,1.179,0,0,1,.48-.16.738.738,0,0,1,.451.1c.292.168.185.373-.105.541Zm-.5.027a.944.944,0,0,0,.332-.125c.189-.11.32-.249.131-.359a.426.426,0,0,0-.292-.047.947.947,0,0,0-.333.121c-.19.11-.316.252-.128.36a.417.417,0,0,0,.287.048" fill="#4c5671"/>
                </g>
              </g>
              <g id="Group_15129" data-name="Group 15129">
                <path id="Path_25209" data-name="Path 25209" d="M23.018,12.175a.249.249,0,0,1,0,.471.9.9,0,0,1-.817,0,.249.249,0,0,1,0-.471.9.9,0,0,1,.817,0Z" fill="#47a047"/>
              </g>
              <g id="Group_15130" data-name="Group 15130">
                <path id="Path_25210" data-name="Path 25210" d="M20.621,10.792a.249.249,0,0,1,0,.47.9.9,0,0,1-.811,0,.249.249,0,0,1,0-.471.9.9,0,0,1,.811,0Z" fill="#5faf5f"/>
              </g>
              <g id="Group_15131" data-name="Group 15131">
                <path id="Path_25211" data-name="Path 25211" d="M21.817,11.482a.249.249,0,0,1,0,.471.9.9,0,0,1-.817,0,.249.249,0,0,1,0-.47.9.9,0,0,1,.817,0Z" fill="#47a047"/>
              </g>
              <g id="Group_15132" data-name="Group 15132">
                <path id="Path_25212" data-name="Path 25212" d="M17.523,13.462l-1.005.583-.164-.095.855-.5-.2-.117.15-.088Z" fill="#4c5671"/>
              </g>
              <g id="Group_15137" data-name="Group 15137">
                <g id="Group_15133" data-name="Group 15133">
                  <path id="Path_25213" data-name="Path 25213" d="M16.042,7.684a6.3,6.3,0,0,0-4.4.658c-1.3.754-1.7,1.788-1.119,2.547L4.169,7.216a.419.419,0,0,1,0-.793L8.313,4.012a1.51,1.51,0,0,1,1.369,0Zm-8.75-.037a3.476,3.476,0,0,0,3.157,0,.966.966,0,0,0-.011-1.829,3.476,3.476,0,0,0-3.157,0,.966.966,0,0,0,.01,1.829" fill="#96d696"/>
                </g>
                <g id="Group_15134" data-name="Group 15134">
                  <path id="Path_25214" data-name="Path 25214" d="M10.435,5.818a.966.966,0,0,1,.01,1.829,3.476,3.476,0,0,1-3.157,0,.966.966,0,0,1-.01-1.829,3.476,3.476,0,0,1,3.157,0Z" fill="#47a047"/>
                </g>
                <g id="Group_15135" data-name="Group 15135">
                  <path id="Path_25215" data-name="Path 25215" d="M16.858,8.007a1.9,1.9,0,0,1,.563.474c.583.758.178,1.8-1.116,2.549a6.288,6.288,0,0,1-4.4.655,3.267,3.267,0,0,1-.822-.325,1.892,1.892,0,0,1-.562-.474c-.583-.758-.175-1.794,1.119-2.547a6.3,6.3,0,0,1,4.4-.654,3.25,3.25,0,0,1,.817.324Z" fill="#47a047"/>
                </g>
                <g id="Group_15136" data-name="Group 15136">
                  <path id="Path_25216" data-name="Path 25216" d="M23.78,12.151c.38.22.386.575.008.794l-4.148,2.411a1.511,1.511,0,0,1-1.372,0l-6.358-3.67a6.288,6.288,0,0,0,4.4-.655c1.294-.752,1.7-1.787,1.116-2.549Zm-5.188,2.939a1.167,1.167,0,0,0,.483-.158c.292-.169.4-.373.105-.541a.739.739,0,0,0-.451-.1,1.179,1.179,0,0,0-.48.16c-.292.169-.4.372-.111.541a.74.74,0,0,0,.454.095m-1-.575a1.167,1.167,0,0,0,.483-.159.539.539,0,0,0,.273-.281c.027-.095-.029-.18-.168-.261a.739.739,0,0,0-.451-.1,1.179,1.179,0,0,0-.48.16q-.24.139-.276.279c-.027.095.029.184.165.263a.74.74,0,0,0,.454.095m4.608-1.87a.9.9,0,0,0,.817,0,.249.249,0,0,0,0-.471.9.9,0,0,0-.817,0,.249.249,0,0,0,0,.471M19.81,11.262a.9.9,0,0,0,.811,0,.249.249,0,0,0,0-.47.9.9,0,0,0-.817,0,.249.249,0,0,0,0,.471m1.2.222a.249.249,0,0,0,0,.47.9.9,0,0,0,.817,0,.249.249,0,0,0,0-.471.9.9,0,0,0-.811,0m-4.492,2.563,1.005-.583-.368-.212-.15.087.2.117-.855.5Z" fill="#96d696"/>
                </g>
              </g>
            </g>
            <g id="Group_15141" data-name="Group 15141">
              <g id="Group_15139" data-name="Group 15139">
                <path id="Path_25217" data-name="Path 25217" d="M19.933,8.563,11.99,13.179,9,11.451l7.941-4.618Z" fill="#e3e7f0"/>
              </g>
              <g id="Group_15140" data-name="Group 15140">
                <path id="Path_25218" data-name="Path 25218" d="M16.622,6.65,8.678,11.267,9,11.45l7.941-4.618Z" fill="#ed5d71"/>
                <path id="Path_25219" data-name="Path 25219" d="M20.246,8.744l-.313-.181L11.99,13.179l.318.184Z" fill="#ed5d71"/>
              </g>
            </g>
          </g>
          <g id="Group_15143" data-name="Group 15143">
            <path id="Path_25220" data-name="Path 25220" d="M26.381,14.192,18.438,18.8v-.182l7.943-4.608Z" fill="#5faf5f"/>
            <path id="Path_25221" data-name="Path 25221" d="M26.38,13.771,18.437,18.38V18.2l7.943-4.608Z" fill="#5faf5f"/>
            <path id="Path_25222" data-name="Path 25222" d="M18.433,16.9l7.943-4.616v.226L18.433,17.12Z" fill="#5faf5f"/>
            <path id="Path_25223" data-name="Path 25223" d="M26.386,15.837l-7.943,4.616V20.3L26.386,15.7Z" fill="#5faf5f"/>
            <path id="Path_25224" data-name="Path 25224" d="M26.384,15.034l-7.943,4.608v-.181l7.943-4.608Z" fill="#5faf5f"/>
            <path id="Path_25225" data-name="Path 25225" d="M26.385,15.454l-7.943,4.612v-.182l7.943-4.608Z" fill="#5faf5f"/>
            <path id="Path_25226" data-name="Path 25226" d="M26.383,14.612,18.44,19.224v-.182l7.943-4.608Z" fill="#5faf5f"/>
            <path id="Path_25227" data-name="Path 25227" d="M18.433,17.359l7.943-4.608v.182l-7.943,4.608Z" fill="#5faf5f"/>
            <path id="Path_25228" data-name="Path 25228" d="M26.379,13.169v.181l-7.946,4.611V17.78Z" fill="#5faf5f"/>
          </g>
        </g>
        <g id="Group_15145" data-name="Group 15145">
          <path id="Path_25229" data-name="Path 25229" d="M5.094,21.117.583,14.661v.253l4.51,6.453Z" fill="#47a047"/>
          <path id="Path_25230" data-name="Path 25230" d="M5.1,18.894.592,12.44v.253L5.1,19.147Z" fill="#47a047"/>
          <path id="Path_25231" data-name="Path 25231" d="M5.095,20.671.587,14.218v.253l4.507,6.453Z" fill="#47a047"/>
          <path id="Path_25232" data-name="Path 25232" d="M5.1,18.523.593,12.059v.191L5.1,18.7Z" fill="#47a047"/>
          <path id="Path_25233" data-name="Path 25233" d="M5.1,20.227.588,13.773v.253L5.1,20.479Z" fill="#47a047"/>
          <path id="Path_25234" data-name="Path 25234" d="M5.1,19.783.589,13.329v.253L5.1,20.035Z" fill="#47a047"/>
          <path id="Path_25235" data-name="Path 25235" d="M5.1,19.338.59,12.885v.253L5.1,19.591Z" fill="#47a047"/>
          <path id="Path_25236" data-name="Path 25236" d="M5.092,21.559.583,15.108v.252l4.509,6.452Z" fill="#47a047"/>
        </g>
      </g>
    </g>
  </g>
</svg>
