<svg xmlns="http://www.w3.org/2000/svg" xmlns:xlink="http://www.w3.org/1999/xlink" width="28" height="28" viewBox="0 0 28 28">
  <defs>
    <clipPath id="clip-path">
      <rect id="Rectangle_5257" data-name="Rectangle 5257" width="28" height="28" transform="translate(-15933 -5149)" fill="#fff" stroke="#707070" stroke-width="1"/>
    </clipPath>
  </defs>
  <g id="Mask_Group_15066" data-name="Mask Group 15066" transform="translate(15933 5149)" clip-path="url(#clip-path)">
    <g id="credit-card" transform="translate(-15933 -5149)">
      <g id="Group_15268" data-name="Group 15268">
        <g id="Group_15243" data-name="Group 15243">
          <g id="Group_15238" data-name="Group 15238">
            <path id="Path_25323" data-name="Path 25323" d="M26.184,23.516H1.816A1.819,1.819,0,0,1,0,21.695V6.305A1.818,1.818,0,0,1,1.816,4.49H26.179A1.819,1.819,0,0,1,28,6.305V21.695A1.819,1.819,0,0,1,26.184,23.516Z" fill="#505278"/>
            <path id="Path_25324" data-name="Path 25324" d="M26.184,4.49H14V23.516H26.184A1.815,1.815,0,0,0,28,21.7V6.305A1.818,1.818,0,0,0,26.184,4.49Z" fill="#424566"/>
          </g>
          <g id="Group_15242" data-name="Group 15242">
            <g id="Group_15240" data-name="Group 15240">
              <g id="Group_15239" data-name="Group 15239">
                <path id="Path_25325" data-name="Path 25325" d="M14.607,4.49A10.487,10.487,0,0,1,4.134,14.612,10.336,10.336,0,0,1,0,13.759V11.315a8.225,8.225,0,0,0,4.134,1.1,8.3,8.3,0,0,0,8.28-7.935h2.193V4.49Z" fill="#575982"/>
              </g>
              <path id="Path_25326" data-name="Path 25326" d="M14,4.49V7.667a10.563,10.563,0,0,0,.607-3.177Z" fill="#505278"/>
            </g>
            <g id="Group_15241" data-name="Group 15241">
              <path id="Path_25327" data-name="Path 25327" d="M28,15.613v2.22a13.4,13.4,0,0,0-3.861-.235,11.6,11.6,0,0,0-6.7,3.374c-.366.334-.738.678-1.094,1.012-.547.509-1.094,1.023-1.668,1.526H11.134a30.022,30.022,0,0,0,3.719-3.123c.366-.339.738-.695,1.116-1.034a13.687,13.687,0,0,1,7.952-3.932,15.613,15.613,0,0,1,4.08.191Z" fill="#505278"/>
              <path id="Path_25328" data-name="Path 25328" d="M11.134,23.516H14V21.18a24.12,24.12,0,0,1-2.866,2.335Z" fill="#575982"/>
            </g>
          </g>
        </g>
        <g id="Group_15267" data-name="Group 15267">
          <g id="Group_15245" data-name="Group 15245">
            <path id="Path_25329" data-name="Path 25329" d="M5.863,13.748H3.177A.745.745,0,0,1,2.434,13V11.222a.745.745,0,0,1,.744-.744H5.863a.745.745,0,0,1,.744.744V13A.745.745,0,0,1,5.863,13.748Z" fill="#424566"/>
            <g id="Group_15244" data-name="Group 15244">
              <path id="Path_25330" data-name="Path 25330" d="M5.863,13.7H3.172a.7.7,0,0,1-.695-.695V11.222a.7.7,0,0,1,.695-.695H5.863a.7.7,0,0,1,.695.695V13.01a.7.7,0,0,1-.695.695Z" fill="#febd55"/>
              <path id="Path_25331" data-name="Path 25331" d="M6.557,12.173v-.109H5.135v-.481l.366-.366H6.557a.674.674,0,0,0-.011-.109H5.474a.05.05,0,0,0-.038.016l-.383.383H4.572v-.973H4.462v.973H3.987L3.6,11.123a.059.059,0,0,0-.038-.016H2.488a.674.674,0,0,0-.011.109H3.544l.361.361v.487H2.477v.109H3.9v.487l-.361.361H2.477a.674.674,0,0,0,.011.109H3.566a.05.05,0,0,0,.038-.016l.383-.383h.476V13.7h.109v-.973h.481l.383.383a.05.05,0,0,0,.038.016H6.546a.674.674,0,0,0,.011-.109H5.5l-.366-.366v-.481Zm-1.531.448H4.014V11.61H5.026Z" fill="#b5613c"/>
            </g>
          </g>
          <path id="Path_25332" data-name="Path 25332" d="M25.069,13.672A.151.151,0,0,1,25,13.655a.157.157,0,0,1-.071-.219,2.9,2.9,0,0,0,0-2.63.163.163,0,1,1,.29-.148,3.21,3.21,0,0,1,0,2.926A.172.172,0,0,1,25.069,13.672Zm-.563-.312a2.486,2.486,0,0,0,0-2.483.164.164,0,0,0-.284.164,2.149,2.149,0,0,1,0,2.16.167.167,0,0,0,.06.224.154.154,0,0,0,.082.022A.2.2,0,0,0,24.505,13.36Zm-.7-.224a1.776,1.776,0,0,0,0-2.045.165.165,0,1,0-.273.186,1.465,1.465,0,0,1,0,1.673.167.167,0,0,0,.044.23.143.143,0,0,0,.093.027.146.146,0,0,0,.137-.071Zm-.738-.208a1.067,1.067,0,0,0,0-1.619.163.163,0,1,0-.219.241.747.747,0,0,1,0,1.138.164.164,0,0,0-.011.23.176.176,0,0,0,.12.055.174.174,0,0,0,.109-.044Z" fill="#cad4ff"/>
          <path id="Path_25333" data-name="Path 25333" d="M13.776,20.759H2.641a.164.164,0,1,1,0-.328H13.776a.161.161,0,0,1,.164.164A.165.165,0,0,1,13.776,20.759Z" fill="#e6eaff"/>
          <path id="Path_25334" data-name="Path 25334" d="M25.4,20.759H23.291a.164.164,0,1,1,0-.328H25.4a.161.161,0,0,1,.164.164A.165.165,0,0,1,25.4,20.759ZM22.395,20.6a.161.161,0,0,0-.164-.164H20.12a.164.164,0,1,0,0,.328H22.23A.165.165,0,0,0,22.395,20.6Z" fill="#cad4ff"/>
          <path id="Path_25335" data-name="Path 25335" d="M2.641,8.22a.161.161,0,0,1-.164-.164V7.41a.164.164,0,0,1,.328,0v.64A.166.166,0,0,1,2.641,8.22ZM3.7,8.055V7.41a.164.164,0,1,0-.328,0v.64a.161.161,0,0,0,.164.164A.157.157,0,0,0,3.7,8.055Zm.9,0V7.41a.164.164,0,0,0-.328,0v.64a.164.164,0,0,0,.328.005Zm.891,0V7.41a.164.164,0,0,0-.328,0v.64a.161.161,0,0,0,.164.164A.157.157,0,0,0,5.485,8.055Z" fill="#e6eaff"/>
          <g id="Group_15266" data-name="Group 15266">
            <g id="Group_15250" data-name="Group 15250">
              <g id="Group_15246" data-name="Group 15246">
                <path id="Path_25336" data-name="Path 25336" d="M2.98,17.976H2.953a.5.5,0,0,1-.5-.5V16.7a.5.5,0,0,1,.5-.5H2.98a.5.5,0,0,1,.5.5v.777A.5.5,0,0,1,2.98,17.976Zm-.027-1.444a.17.17,0,0,0-.17.17v.777a.17.17,0,0,0,.17.17h.027a.17.17,0,0,0,.17-.17V16.7a.17.17,0,0,0-.17-.17Z" fill="#e6eaff"/>
              </g>
              <g id="Group_15247" data-name="Group 15247">
                <path id="Path_25337" data-name="Path 25337" d="M4.309,17.976H4.282a.5.5,0,0,1-.5-.5V16.7a.5.5,0,0,1,.5-.5h.027a.5.5,0,0,1,.5.5v.777A.5.5,0,0,1,4.309,17.976Zm-.027-1.444a.17.17,0,0,0-.17.17v.777a.17.17,0,0,0,.17.17h.027a.17.17,0,0,0,.17-.17V16.7a.17.17,0,0,0-.17-.17Z" fill="#e6eaff"/>
              </g>
              <g id="Group_15248" data-name="Group 15248">
                <path id="Path_25338" data-name="Path 25338" d="M5.638,17.976H5.611a.5.5,0,0,1-.5-.5V16.7a.5.5,0,0,1,.5-.5h.027a.5.5,0,0,1,.5.5v.777a.5.5,0,0,1-.5.5Zm-.027-1.444a.17.17,0,0,0-.17.17v.777a.17.17,0,0,0,.17.17h.027a.17.17,0,0,0,.17-.17V16.7a.17.17,0,0,0-.17-.17Z" fill="#e6eaff"/>
              </g>
              <g id="Group_15249" data-name="Group 15249">
                <path id="Path_25339" data-name="Path 25339" d="M6.967,17.976H6.94a.5.5,0,0,1-.5-.5V16.7a.5.5,0,0,1,.5-.5h.027a.5.5,0,0,1,.5.5v.777A.5.5,0,0,1,6.967,17.976ZM6.94,16.532a.17.17,0,0,0-.17.17v.777a.17.17,0,0,0,.17.17h.027a.17.17,0,0,0,.17-.17V16.7a.17.17,0,0,0-.17-.17Z" fill="#e6eaff"/>
              </g>
            </g>
            <g id="Group_15255" data-name="Group 15255">
              <g id="Group_15251" data-name="Group 15251">
                <path id="Path_25340" data-name="Path 25340" d="M9.007,17.976H8.98a.5.5,0,0,1-.5-.5V16.7a.5.5,0,0,1,.5-.5h.027a.5.5,0,0,1,.5.5v.777A.5.5,0,0,1,9.007,17.976ZM8.98,16.532a.17.17,0,0,0-.17.17v.777a.17.17,0,0,0,.17.17h.027a.17.17,0,0,0,.17-.17V16.7a.17.17,0,0,0-.17-.17Z" fill="#e6eaff"/>
              </g>
              <g id="Group_15252" data-name="Group 15252">
                <path id="Path_25341" data-name="Path 25341" d="M10.336,17.976h-.027a.5.5,0,0,1-.5-.5V16.7a.5.5,0,0,1,.5-.5h.027a.5.5,0,0,1,.5.5v.777A.5.5,0,0,1,10.336,17.976Zm-.027-1.444a.17.17,0,0,0-.17.17v.777a.17.17,0,0,0,.17.17h.027a.17.17,0,0,0,.17-.17V16.7a.17.17,0,0,0-.17-.17Z" fill="#e6eaff"/>
              </g>
              <g id="Group_15253" data-name="Group 15253">
                <path id="Path_25342" data-name="Path 25342" d="M11.665,17.976h-.027a.5.5,0,0,1-.5-.5V16.7a.5.5,0,0,1,.5-.5h.027a.5.5,0,0,1,.5.5v.777a.5.5,0,0,1-.5.5Zm-.027-1.444a.17.17,0,0,0-.17.17v.777a.17.17,0,0,0,.17.17h.027a.17.17,0,0,0,.17-.17V16.7a.17.17,0,0,0-.17-.17Z" fill="#e6eaff"/>
              </g>
              <g id="Group_15254" data-name="Group 15254">
                <path id="Path_25343" data-name="Path 25343" d="M12.994,17.976h-.027a.5.5,0,0,1-.5-.5V16.7a.5.5,0,0,1,.5-.5h.027a.5.5,0,0,1,.5.5v.777A.5.5,0,0,1,12.994,17.976Zm-.027-1.444a.17.17,0,0,0-.17.17v.777a.17.17,0,0,0,.17.17h.027a.17.17,0,0,0,.17-.17V16.7a.17.17,0,0,0-.17-.17Z" fill="#e6eaff"/>
              </g>
            </g>
            <g id="Group_15260" data-name="Group 15260">
              <g id="Group_15256" data-name="Group 15256">
                <path id="Path_25344" data-name="Path 25344" d="M15.034,17.976h-.027a.5.5,0,0,1-.5-.5V16.7a.5.5,0,0,1,.5-.5h.027a.5.5,0,0,1,.5.5v.777A.5.5,0,0,1,15.034,17.976Zm-.027-1.444a.17.17,0,0,0-.17.17v.777a.17.17,0,0,0,.17.17h.027a.17.17,0,0,0,.17-.17V16.7a.17.17,0,0,0-.17-.17Z" fill="#cad4ff"/>
              </g>
              <g id="Group_15257" data-name="Group 15257">
                <path id="Path_25345" data-name="Path 25345" d="M16.362,17.976h-.027a.5.5,0,0,1-.5-.5V16.7a.5.5,0,0,1,.5-.5h.027a.5.5,0,0,1,.5.5v.777A.5.5,0,0,1,16.362,17.976Zm-.027-1.444a.17.17,0,0,0-.17.17v.777a.17.17,0,0,0,.17.17h.027a.17.17,0,0,0,.17-.17V16.7a.17.17,0,0,0-.17-.17Z" fill="#cad4ff"/>
              </g>
              <g id="Group_15258" data-name="Group 15258">
                <path id="Path_25346" data-name="Path 25346" d="M17.691,17.976h-.027a.5.5,0,0,1-.5-.5V16.7a.5.5,0,0,1,.5-.5h.027a.5.5,0,0,1,.5.5v.777A.5.5,0,0,1,17.691,17.976Zm-.027-1.444a.17.17,0,0,0-.17.17v.777a.17.17,0,0,0,.17.17h.027a.17.17,0,0,0,.17-.17V16.7a.17.17,0,0,0-.17-.17Z" fill="#cad4ff"/>
              </g>
              <g id="Group_15259" data-name="Group 15259">
                <path id="Path_25347" data-name="Path 25347" d="M19.02,17.976h-.027a.5.5,0,0,1-.5-.5V16.7a.5.5,0,0,1,.5-.5h.027a.5.5,0,0,1,.5.5v.777A.5.5,0,0,1,19.02,17.976Zm-.027-1.444a.17.17,0,0,0-.17.17v.777a.17.17,0,0,0,.17.17h.027a.17.17,0,0,0,.17-.17V16.7a.17.17,0,0,0-.17-.17Z" fill="#cad4ff"/>
              </g>
            </g>
            <g id="Group_15265" data-name="Group 15265">
              <g id="Group_15261" data-name="Group 15261">
                <path id="Path_25348" data-name="Path 25348" d="M21.06,17.976h-.027a.5.5,0,0,1-.5-.5V16.7a.5.5,0,0,1,.5-.5h.027a.5.5,0,0,1,.5.5v.777A.5.5,0,0,1,21.06,17.976Zm-.027-1.444a.17.17,0,0,0-.17.17v.777a.17.17,0,0,0,.17.17h.027a.17.17,0,0,0,.17-.17V16.7a.17.17,0,0,0-.17-.17Z" fill="#cad4ff"/>
              </g>
              <g id="Group_15262" data-name="Group 15262">
                <path id="Path_25349" data-name="Path 25349" d="M22.389,17.976h-.027a.5.5,0,0,1-.5-.5V16.7a.5.5,0,0,1,.5-.5h.027a.5.5,0,0,1,.5.5v.777A.5.5,0,0,1,22.389,17.976Zm-.027-1.444a.17.17,0,0,0-.17.17v.777a.17.17,0,0,0,.17.17h.027a.17.17,0,0,0,.17-.17V16.7a.17.17,0,0,0-.17-.17Z" fill="#cad4ff"/>
              </g>
              <g id="Group_15263" data-name="Group 15263">
                <path id="Path_25350" data-name="Path 25350" d="M23.718,17.976h-.027a.5.5,0,0,1-.5-.5V16.7a.5.5,0,0,1,.5-.5h.027a.5.5,0,0,1,.5.5v.777A.5.5,0,0,1,23.718,17.976Zm-.027-1.444a.17.17,0,0,0-.17.17v.777a.17.17,0,0,0,.17.17h.027a.17.17,0,0,0,.17-.17V16.7a.17.17,0,0,0-.17-.17Z" fill="#cad4ff"/>
              </g>
              <g id="Group_15264" data-name="Group 15264">
                <path id="Path_25351" data-name="Path 25351" d="M25.047,17.976h-.027a.5.5,0,0,1-.5-.5V16.7a.5.5,0,0,1,.5-.5h.027a.5.5,0,0,1,.5.5v.777A.5.5,0,0,1,25.047,17.976Zm-.027-1.444a.17.17,0,0,0-.17.17v.777a.17.17,0,0,0,.17.17h.027a.17.17,0,0,0,.17-.17V16.7a.17.17,0,0,0-.17-.17Z" fill="#cad4ff"/>
              </g>
            </g>
          </g>
        </g>
      </g>
    </g>
  </g>
</svg>
