<svg xmlns="http://www.w3.org/2000/svg" xmlns:xlink="http://www.w3.org/1999/xlink" width="24" height="24" viewBox="0 0 24 24">
  <defs>
    <clipPath id="clip-path">
      <rect id="Rectangle_3862" data-name="Rectangle 3862" width="24" height="24" transform="translate(36 583)" fill="#a8a8a8" stroke="#707070" stroke-width="1"/>
    </clipPath>
  </defs>
  <g id="Mask_Group_175" data-name="Mask Group 175" transform="translate(-36 -583)" clip-path="url(#clip-path)">
    <g id="Line" transform="translate(34.037 581.037)">
      <path id="Path_43018" data-name="Path 43018" d="M23.563,25.962H9.6a2.4,2.4,0,0,1-2.4-2.4V23.17a6.763,6.763,0,0,1,0-13.178V4.363a2.4,2.4,0,0,1,2.4-2.4h9.748a2.391,2.391,0,0,1,1.7.707l4.206,4.206a2.391,2.391,0,0,1,.707,1.745v14.94A2.4,2.4,0,0,1,23.563,25.962ZM8.509,23.344v.218A1.091,1.091,0,0,0,9.6,24.653H23.563a1.091,1.091,0,0,0,1.091-1.091V9.381H20.944a2.4,2.4,0,0,1-2.4-2.4V3.273H9.6A1.091,1.091,0,0,0,8.509,4.363V9.818h.218a6.763,6.763,0,1,1,0,13.527Zm.218-12.218a5.454,5.454,0,1,0,5.454,5.454,5.454,5.454,0,0,0-5.454-5.454ZM19.854,3.395V6.981a1.091,1.091,0,0,0,1.091,1.091h3.587a1.213,1.213,0,0,0-.2-.271L20.124,3.6a1.213,1.213,0,0,0-.271-.2Zm1.964,16.459H17.454a.655.655,0,0,1,0-1.309h4.363a.655.655,0,0,1,0,1.309Zm-14.4-1.309a.646.646,0,0,1-.436-.218.655.655,0,0,1,0-.873L8.1,16.337V13.963a.655.655,0,0,1,1.309,0v2.618a.655.655,0,0,1-.192.463L7.854,18.326a.646.646,0,0,1-.436.218Zm14.4-2.182H18.326a.655.655,0,1,1,0-1.309h3.491a.655.655,0,1,1,0,1.309Zm0-3.491H17.454a.655.655,0,1,1,0-1.309h4.363a.655.655,0,1,1,0,1.309ZM15.708,9.381H13.09a.655.655,0,1,1,0-1.309h2.618a.655.655,0,1,1,0,1.309Z" fill="#a8a8a8"/>
    </g>
  </g>
</svg>
