<svg xmlns="http://www.w3.org/2000/svg" width="148.656" height="122.16" viewBox="0 0 148.656 122.16">
  <g id="Group_115" data-name="Group 115" transform="translate(-113 -304)">
    <g id="Group_110" data-name="Group 110" transform="translate(4.417)">
      <g id="Group_109" data-name="Group 109">
        <path id="Path_1" data-name="Path 1" d="M30.266,52.367,23.621,7.327,22.832,1.79a1.571,1.571,0,0,1,1.748-1.8l5.652.721L81.639,7.252v.116L35.979,13.2Z" transform="translate(138.287 304.018)" fill="#f08234"/>
        <path id="Path_2" data-name="Path 2" d="M50.332,57.41l6.489,44.123.8,5.441a1.544,1.544,0,0,1-1.714,1.748l-5.537-.68L0,101.594v-.116l44.714-5.693Z" transform="translate(145.583 285.651)" fill="#d55432"/>
      </g>
    </g>
    <g id="Group_114" data-name="Group 114" transform="translate(53 -21)">
      <g id="Group_111" data-name="Group 111" transform="translate(60 431.003)">
        <path id="Path_3" data-name="Path 3" d="M131.079,15.65a8.381,8.381,0,0,1-2.779-1.309l1.245-2.722a8.343,8.343,0,0,0,2.389,1.184,9,9,0,0,0,2.765.444,4.436,4.436,0,0,0,2.278-.458,1.379,1.379,0,0,0,.737-1.215,1.154,1.154,0,0,0-.437-.925,3.294,3.294,0,0,0-1.114-.592q-.673-.222-1.844-.491A25.509,25.509,0,0,1,131.4,8.72a4.74,4.74,0,0,1-1.951-1.363,3.667,3.667,0,0,1-.814-2.5,4.347,4.347,0,0,1,.737-2.466,4.973,4.973,0,0,1,2.2-1.753A9.084,9.084,0,0,1,135.2-.007a11.974,11.974,0,0,1,2.924.357,8.747,8.747,0,0,1,2.5,1.026L139.5,4.121a8.72,8.72,0,0,0-4.33-1.228,4.065,4.065,0,0,0-2.244.491,1.507,1.507,0,0,0-.723,1.3,1.265,1.265,0,0,0,.838,1.194,13.121,13.121,0,0,0,2.557.77,25.306,25.306,0,0,1,2.924.848,4.861,4.861,0,0,1,1.955,1.346,3.6,3.6,0,0,1,.814,2.476,4.249,4.249,0,0,1-.75,2.446,5.006,5.006,0,0,1-2.251,1.743,9.107,9.107,0,0,1-3.63.639,12.821,12.821,0,0,1-3.583-.491Z" transform="translate(-128.3 0.011)" fill="#d55432"/>
        <path id="Path_4" data-name="Path 4" d="M188.488,16.42l-.024-9.373-4.6,7.738h-1.612l-4.592-7.526V16.42H174.27V.8h2.991l5.847,9.706L188.864.8h2.971l.044,15.62Z" transform="translate(-158.804 -0.527)" fill="#d55432"/>
        <path id="Path_5" data-name="Path 5" d="M243.867,13.073h-7.253l-1.383,3.347h-3.7L238.487.8h3.573l6.984,15.62H245.25Zm-1.137-2.745-2.48-5.982-2.476,5.982Z" transform="translate(-196.8 -0.527)" fill="#d55432"/>
        <path id="Path_6" data-name="Path 6" d="M298.378,16.416l-3.028-4.35h-3.324v4.35h-3.6V.8h6.762a8.686,8.686,0,0,1,3.607.69,5.352,5.352,0,0,1,2.355,1.965,5.406,5.406,0,0,1,.828,3.028,5.305,5.305,0,0,1-.838,3,5.312,5.312,0,0,1-2.375,1.931l3.5,5.02ZM297.47,4.442a3.8,3.8,0,0,0-2.476-.7h-2.947V9.186h2.947a3.766,3.766,0,0,0,2.476-.713,2.486,2.486,0,0,0,.848-2.019,2.483,2.483,0,0,0-.848-2.012Z" transform="translate(-234.557 -0.522)" fill="#d55432"/>
        <path id="Path_7" data-name="Path 7" d="M336.289,3.744h-5V.8H344.9V3.744h-5V16.42h-3.613Z" transform="translate(-262.998 -0.527)" fill="#d55432"/>
      </g>
      <g id="Group_113" data-name="Group 113" transform="translate(148.643 431.52)">
        <g id="Group_112" data-name="Group 112" transform="translate(0 0)">
          <path id="Path_8" data-name="Path 8" d="M140.395,99.12v2.9H128.3V86.4h11.805v2.893H131.9v3.395h7.253V95.5H131.9v3.613Z" transform="translate(-128.3 -86.398)" fill="#f08234"/>
          <path id="Path_9" data-name="Path 9" d="M183.175,87.089a5.34,5.34,0,0,1,2.355,1.961,5.877,5.877,0,0,1,0,6.015,5.238,5.238,0,0,1-2.355,1.965,8.8,8.8,0,0,1-3.6.673h-3.146v4.31H172.81V86.4h6.762A8.684,8.684,0,0,1,183.175,87.089Zm-1.326,6.974a2.8,2.8,0,0,0,0-4.017,3.789,3.789,0,0,0-2.479-.7h-2.944v5.423h2.944A3.808,3.808,0,0,0,181.85,94.063Z" transform="translate(-157.836 -86.393)" fill="#d55432"/>
          <path id="Path_10" data-name="Path 10" d="M224.64,98.673h-7.264l-1.386,3.364h-3.7L219.258,86.4h3.57l6.984,15.624h-3.8ZM223.5,95.931l-2.49-5.965-2.479,5.982Z" transform="translate(-184.033 -86.398)" fill="#d55432"/>
          <path id="Path_11" data-name="Path 11" d="M269.559,96.486v5.538h-3.613V96.442L259.89,86.4h3.839l4.178,6.93,4.175-6.93h3.549Z" transform="translate(-215.619 -86.398)" fill="#d55432"/>
        </g>
      </g>
    </g>
  </g>
</svg>
