<svg xmlns="http://www.w3.org/2000/svg" xmlns:xlink="http://www.w3.org/1999/xlink" width="46" height="46" viewBox="0 0 46 46">
  <defs>
    <filter id="Ellipse_389" x="0" y="0" width="46" height="46" filterUnits="userSpaceOnUse">
      <feOffset dy="3" input="SourceAlpha"/>
      <feGaussianBlur stdDeviation="3" result="blur"/>
      <feFlood flood-opacity="0.161"/>
      <feComposite operator="in" in2="blur"/>
      <feComposite in="SourceGraphic"/>
    </filter>
    <clipPath id="clip-path">
      <rect id="Rectangle_3932" data-name="Rectangle 3932" width="16" height="16" transform="translate(-1168 2620)" fill="#fff" stroke="#707070" stroke-width="1"/>
    </clipPath>
  </defs>
  <g id="Group_14233" data-name="Group 14233" transform="translate(1006 -2594)">
    <g transform="matrix(1, 0, 0, 1, -1006, 2594)" filter="url(#Ellipse_389)">
      <circle id="Ellipse_389-2" data-name="Ellipse 389" cx="14" cy="14" r="14" transform="translate(9 6)" fill="#29cb97"/>
    </g>
    <g id="Mask_Group_134" data-name="Mask Group 134" transform="translate(177 -14)" clip-path="url(#clip-path)">
      <g id="contactless_2_" data-name="contactless (2)" transform="translate(-1168 2620)">
        <path id="Path_42532" data-name="Path 42532" d="M11.044,8.5a5.367,5.367,0,0,0,.831-2.875A5.794,5.794,0,0,0,5.938,0,5.794,5.794,0,0,0,0,5.625,5.794,5.794,0,0,0,5.938,11.25q.188,0,.375-.011v-.4A2.346,2.346,0,0,1,8.656,8.5ZM3.769,6.619a.469.469,0,0,1-.663-.663.469.469,0,0,0,0-.663.469.469,0,0,1,.663-.663A1.408,1.408,0,0,1,3.769,6.619Zm.663,1.326a.469.469,0,0,1,0-.663,2.346,2.346,0,0,0,0-3.315A.469.469,0,0,1,5.095,3.3a3.285,3.285,0,0,1,0,4.64A.469.469,0,0,1,4.432,7.945ZM6.421,9.271a.469.469,0,0,1-.663-.663,4.224,4.224,0,0,0,0-5.966.469.469,0,1,1,.663-.663,5.162,5.162,0,0,1,0,7.292Z" fill="#fff"/>
        <path id="Path_42533" data-name="Path 42533" d="M18.219,14.156H12.281a1.408,1.408,0,0,0-1.406,1.406v.156h8.75v-.156A1.408,1.408,0,0,0,18.219,14.156Z" transform="translate(-3.625 -4.719)" fill="#fff"/>
        <path id="Path_42534" data-name="Path 42534" d="M10.875,20.563a1.408,1.408,0,0,0,1.406,1.406h5.938a1.408,1.408,0,0,0,1.406-1.406V17.906h-8.75Zm6.25-.781h.625a.469.469,0,0,1,0,.938h-.625a.469.469,0,0,1,0-.937Z" transform="translate(-3.625 -5.969)" fill="#fff"/>
      </g>
    </g>
  </g>
</svg>
