<svg xmlns="http://www.w3.org/2000/svg" width="230" height="230">
    <path
        d="M 143.079 61.501 L 72.402 61.501 L 72.402 48.204 C 72.402 41.304 77.984 35.722 84.884 35.722 L 143.079 35.722 Z"
        fill="rgb(242,242,242)"></path>
    <path
        d="M 179.089 112.173 L 152.351 112.365 L 152.351 121.708 L 156.807 116.917 L 161.264 122.355 L 165.696 116.917 L 170.152 122.355 L 174.608 116.917 L 179.065 122.355 L 179.089 122.307 Z"
        fill="rgb(230,230,230)"></path>
    <path
        d="M 131.196 179.16 L 131.196 57.212 L 50.911 57.212 L 50.911 181.125 C 50.911 188.408 56.805 194.302 64.089 194.302 L 139.03 194.302 L 139.03 179.184 L 131.196 179.184 Z"
        fill="rgb(255,255,255)"></path>
    <path
        d="M 143.079 194.206 C 136.443 194.206 131.076 188.84 131.076 182.203 L 131.076 35.722 L 155.082 35.722 L 155.082 182.203 C 155.082 188.84 149.716 194.206 143.079 194.206 Z"
        fill="rgb(242,242,242)"></path>
    <path d="M 145.044 35.722 L 167.085 35.722 L 167.085 48.611 L 145.044 48.611 Z"
        fill="rgb(242,242,242)"></path>
    <path
        d="M 167.085 35.722 C 160.449 35.722 155.082 41.089 155.082 47.725 L 155.082 116.461 L 179.089 116.461 L 179.089 47.725 C 179.089 41.089 173.722 35.722 167.085 35.722 Z"
        fill="rgb(230,230,230)"></path>
    <path d="M 63.561 77.529 L 118.666 77.529 L 118.666 81.722 L 63.561 81.722 Z"
        fill="rgb(153,153,153)"></path>
    <path
        d="M 63.561 91.401 L 88.143 91.401 L 88.143 93.797 L 63.561 93.797 Z M 108.531 91.401 L 118.666 91.401 L 118.666 93.797 L 108.531 93.797 Z M 108.388 100.385 L 118.522 100.385 L 118.522 102.781 L 108.388 102.781 Z M 108.531 109.37 L 118.666 109.37 L 118.666 111.766 L 108.531 111.766 Z M 108.531 118.378 L 118.666 118.378 L 118.666 120.774 L 108.531 120.774 Z M 108.531 127.363 L 118.666 127.363 L 118.666 129.758 L 108.531 129.758 Z M 108.531 136.347 L 118.666 136.347 L 118.666 138.743 L 108.531 138.743 Z M 108.531 145.331 L 118.666 145.331 L 118.666 147.727 L 108.531 147.727 Z M 108.531 154.316 L 118.666 154.316 L 118.666 156.711 L 108.531 156.711 Z M 63.561 100.385 L 90.586 100.385 L 90.586 102.781 L 63.561 102.781 Z M 63.561 109.37 L 83.782 109.37 L 83.782 111.766 L 63.561 111.766 Z M 63.561 118.378 L 83.782 118.378 L 83.782 120.774 L 63.561 120.774 Z M 63.561 127.363 L 89.7 127.363 L 89.7 129.758 L 63.561 129.758 Z M 63.561 136.347 L 76.643 136.347 L 76.643 138.743 L 63.561 138.743 Z M 63.561 145.331 L 88.143 145.331 L 88.143 147.727 L 63.561 147.727 Z M 63.561 154.316 L 86.49 154.316 L 86.49 156.711 L 63.561 156.711 Z M 63.561 174.417 L 102.829 174.417 L 102.829 176.813 L 63.561 176.813 Z"
        fill="rgb(204,204,204)"></path>
    <path
        d="M 50.911 58.147 L 50.911 48.803 L 55.368 53.595 L 59.8 48.156 L 64.256 53.595 L 68.713 48.156 L 73.145 53.595 L 77.601 48.156 L 82.057 53.595 L 86.514 48.156 L 90.97 53.595 L 95.426 48.156 L 99.882 53.595 L 104.339 48.156 L 108.771 53.595 L 113.227 48.156 L 117.683 53.595 L 122.14 48.156 L 126.62 53.595 L 131.196 48.803 L 131.196 58.722 Z"
        fill="rgb(255,255,255)"></path>
</svg>