<svg xmlns="http://www.w3.org/2000/svg" xmlns:xlink="http://www.w3.org/1999/xlink" width="32" height="32" viewBox="0 0 32 32">
  <defs>
    <clipPath id="clip-path">
      <rect id="Rectangle_92" data-name="Rectangle 92" width="32" height="32" transform="translate(76 289)" fill="#fff" stroke="#707070" stroke-width="1"/>
    </clipPath>
  </defs>
  <g id="Mask_Group_6" data-name="Mask Group 6" transform="translate(-76 -289)" clip-path="url(#clip-path)">
    <g id="cashback" transform="translate(76 289)">
      <path id="Path_90" data-name="Path 90" d="M37.149,11.954a.634.634,0,0,0-.466-.194H34.763A15.377,15.377,0,0,0,19.828,0a.32.32,0,0,0-.168.043.314.314,0,0,0-.132.379L21.241,5a.312.312,0,0,0,.293.2,9.07,9.07,0,0,1,8.7,6.562H28.583a.634.634,0,0,0-.466.194.626.626,0,0,0-.027.831l4.063,4.875a.625.625,0,0,0,.96,0l4.063-4.875A.626.626,0,0,0,37.149,11.954Z" transform="translate(-5.32)" fill="#507be9"/>
      <circle id="Ellipse_12" data-name="Ellipse 12" cx="6.875" cy="6.875" r="6.875" transform="translate(7.312 0.937)" fill="#ffee78"/>
      <path id="Path_91" data-name="Path 91" d="M26.383,8.164a6.875,6.875,0,0,0-6.875-6.875v13.75A6.875,6.875,0,0,0,26.383,8.164Z" transform="translate(-5.32 -0.352)" fill="#fcd232"/>
      <path id="Path_92" data-name="Path 92" d="M16.578,15.625a7.812,7.812,0,1,1,7.812-7.812A7.821,7.821,0,0,1,16.578,15.625Zm0-13.75a5.937,5.937,0,1,0,5.937,5.937A5.944,5.944,0,0,0,16.578,1.875Z" transform="translate(-2.391)" fill="#fcd232"/>
      <path id="Path_93" data-name="Path 93" d="M25.445,7.812a5.944,5.944,0,0,1-5.937,5.937v1.875A7.812,7.812,0,0,0,19.508,0V1.875A5.944,5.944,0,0,1,25.445,7.812Z" transform="translate(-5.32)" fill="#f7b90f"/>
      <path id="Path_94" data-name="Path 94" d="M21.07,10.43a2.5,2.5,0,0,0-2.5-2.5.625.625,0,1,1,.612-.751.938.938,0,0,0,1.838-.373,2.506,2.506,0,0,0-1.512-1.817V4.8a.938.938,0,0,0-1.875,0v.183A2.5,2.5,0,0,0,18.57,9.8a.625.625,0,1,1-.612.751.938.938,0,1,0-1.838.373,2.507,2.507,0,0,0,1.512,1.817v.184a.938.938,0,1,0,1.875,0v-.183A2.5,2.5,0,0,0,21.07,10.43Z" transform="translate(-4.383 -1.055)" fill="#fcd232"/>
      <path id="Path_95" data-name="Path 95" d="M19.508,9.453v1.875a.625.625,0,1,1,0,1.25v2.812a.938.938,0,0,0,.938-.937V14.27a2.5,2.5,0,0,0-.937-4.817Z" transform="translate(-5.32 -2.578)" fill="#f7b90f"/>
      <path id="Path_96" data-name="Path 96" d="M20.12,7.179a.938.938,0,0,0,1.838-.373,2.506,2.506,0,0,0-1.512-1.817V4.8a.938.938,0,0,0-.937-.937V6.68a.626.626,0,0,1,.612.5Z" transform="translate(-5.32 -1.055)" fill="#f7b90f"/>
      <path id="Path_97" data-name="Path 97" d="M37.6,29.81a2.187,2.187,0,0,0-3.047-.537l-6.706,4.7a1.562,1.562,0,0,1-.9.283H22v4.375h5.35a4.687,4.687,0,0,0,2.689-.848l7.029-4.922A2.187,2.187,0,0,0,37.6,29.81Z" transform="translate(-6 -7.875)" fill="#fabe8c"/>
      <path id="Path_98" data-name="Path 98" d="M27.852,35.022a1.562,1.562,0,0,1-.9.283L22,34.921V37.18h5.062a4.067,4.067,0,0,0,4.063-4.062c0-.126-.007-.251-.018-.374Z" transform="translate(-6 -8.93)" fill="#e6a578"/>
      <path id="Path_99" data-name="Path 99" d="M33.526,29.481a2.187,2.187,0,0,0-3.047-.537l-5.64,3.949a2.187,2.187,0,0,0-1.855-3.346H17.672l-.611-.459a7.082,7.082,0,0,0-7.893-.407l-1.666,1a.937.937,0,0,0-.455.8v6.875a.938.938,0,0,0,.938.938H23.271a4.687,4.687,0,0,0,2.689-.848l7.029-4.922A2.187,2.187,0,0,0,33.526,29.481Z" transform="translate(-1.922 -7.547)" fill="#ffd2aa"/>
      <path id="Path_100" data-name="Path 100" d="M22,38.625h5.35a4.687,4.687,0,0,0,2.689-.848l7.029-4.922a2.187,2.187,0,0,0-2.509-3.584l-5.64,3.949a2.187,2.187,0,0,0-1.855-3.346H22Z" transform="translate(-6 -7.875)" fill="#fabe8c"/>
      <path id="Path_101" data-name="Path 101" d="M30.193,32.743,28,34.276c-.014.022-.027.043-.041.065a2.185,2.185,0,0,1-1.814.964H19.586a.938.938,0,0,0,0,1.875h6.562a4.067,4.067,0,0,0,4.063-4.062C30.211,32.991,30.2,32.866,30.193,32.743Z" transform="translate(-5.086 -8.93)" fill="#fabe8c"/>
      <path id="Path_102" data-name="Path 102" d="M6.062,39.312H.937A.938.938,0,0,1,0,38.375V27.75a.938.938,0,0,1,.937-.937H6.062A.938.938,0,0,1,7,27.75V38.375A.938.938,0,0,1,6.062,39.312Z" transform="translate(0 -7.312)" fill="#6496f7"/>
      <path id="Path_103" data-name="Path 103" d="M31.107,32.743l-2.189,1.533c-.014.022-.027.043-.041.065a2.185,2.185,0,0,1-1.814.964H22V37.18h5.062a4.067,4.067,0,0,0,4.063-4.062C31.125,32.991,31.118,32.866,31.107,32.743Z" transform="translate(-6 -8.93)" fill="#e6a578"/>
    </g>
  </g>
</svg>
