<svg xmlns="http://www.w3.org/2000/svg" xmlns:xlink="http://www.w3.org/1999/xlink" width="32" height="32" viewBox="0 0 32 32">
  <defs>
    <clipPath id="clip-path">
      <rect id="Rectangle_82" data-name="Rectangle 82" width="32" height="32" transform="translate(255 91)" fill="#fff" stroke="#707070" stroke-width="1"/>
    </clipPath>
  </defs>
  <g id="Mask_Group_5" data-name="Mask Group 5" transform="translate(-255 -91)" clip-path="url(#clip-path)">
    <g id="tax_2_" data-name="tax (2)" transform="translate(255 91.719)">
      <path id="Path_80" data-name="Path 80" d="M6.7.989A2.667,2.667,0,0,0,5.085,4.424l8.952,24.362A4.172,4.172,0,0,0,19.369,31.3a4.129,4.129,0,1,0-4.02-7.09L6.7.989Zm10.577,24.65a1.9,1.9,0,1,1-1.13,2.442A1.9,1.9,0,0,1,17.281,25.639Z" transform="translate(-1.342 -0.989)" fill="#2d5872"/>
      <path id="Path_81" data-name="Path 81" d="M15.6,24.208h0L6.954.989h0c-.066.023-.13.05-.193.077h0l-.1.049-.044.022q-.056.029-.11.06l-.027.016q-.07.041-.136.086l0,0,0,0q-.063.043-.123.09l-.024.019q-.053.042-.1.086l-.019.017a2.663,2.663,0,0,0-.227.228h0l9.038,24.346q.07-.056.142-.109A3.615,3.615,0,1,1,20.065,31.1a4.1,4.1,0,0,0,1.2-.925l.011-.012c.037-.041.072-.084.107-.126l.018-.022c.033-.041.065-.082.1-.124l.022-.03q.045-.061.087-.123l.024-.035q.041-.061.079-.124l.024-.039c.025-.041.049-.083.072-.125l.022-.042c.023-.042.045-.084.066-.127l.02-.042c.021-.043.041-.087.06-.131l.016-.04c.019-.046.039-.092.056-.138l.009-.026a4.132,4.132,0,0,0,.151-.495l.005-.02c.009-.04.017-.08.025-.12,0-.024.01-.048.015-.072s.012-.072.017-.108.009-.057.013-.086.008-.069.012-.1.007-.062.009-.093,0-.067.007-.1,0-.065.005-.1,0-.065,0-.1,0-.067,0-.1,0-.064,0-.1,0-.069-.005-.1,0-.063-.007-.094-.007-.071-.011-.107-.007-.062-.011-.092-.011-.073-.017-.11-.01-.06-.015-.09-.015-.076-.023-.113-.012-.057-.019-.086-.02-.079-.031-.119-.014-.053-.021-.08c-.013-.044-.027-.088-.041-.132-.007-.022-.014-.044-.021-.066q-.034-.1-.073-.2a4.068,4.068,0,0,0-.476-.867c-.059-.081-.121-.16-.185-.236s-.115-.134-.176-.2l-.011-.012q-.067-.069-.137-.135t-.142-.129q-.145-.125-.3-.236a4.188,4.188,0,0,0-1.915-.746l-.04,0c-.122-.014-.245-.023-.368-.026a4.068,4.068,0,0,0-1.166.142q-.1.026-.193.058-.185.06-.359.136h0c-.052.023-.1.046-.155.071l-.045.022-.111.057-.044.023a4.126,4.126,0,0,0-.514.336Z" transform="translate(-1.592 -0.989)" fill="#1d4859"/>
      <path id="Path_82" data-name="Path 82" d="M31.786,21.741H2.726a.752.752,0,0,1-.752-.752V6.464a.752.752,0,0,1,.752-.752h29.06a.752.752,0,0,1,.752.752V20.989A.752.752,0,0,1,31.786,21.741Z" transform="translate(-0.538 -2.277)" fill="#57a200"/>
      <path id="Path_83" data-name="Path 83" d="M31.786,5.712H29.649v14a.752.752,0,0,1-.752.752H1.974v.525a.752.752,0,0,0,.752.752h29.06a.752.752,0,0,0,.752-.752V6.464A.752.752,0,0,0,31.786,5.712Z" transform="translate(-0.538 -2.277)" fill="#698f37"/>
      <path id="Path_84" data-name="Path 84" d="M7.414,18.855c-1.272-.021-2.133-.708-2.133-1.21,0-.246.215-.585.472-.585.338,0,.615.718,1.661.8V15.45c-.923-.328-1.948-.7-1.948-2.01a1.9,1.9,0,0,1,1.948-1.907v-.3a.271.271,0,0,1,.3-.236c.154,0,.308.113.308.236v.277c.7.021,1.682.236,1.682.738,0,.195-.144.585-.451.585-.246,0-.513-.328-1.231-.379v2.082c.892.328,1.866.779,1.866,2.174a1.987,1.987,0,0,1-1.866,2.112v.349c0,.123-.154.236-.308.236a.271.271,0,0,1-.3-.236Zm.062-4.512V12.477c-.574.072-.984.328-.984.861C6.491,13.922,6.932,14.138,7.476,14.343Zm.482,1.333v2.164a.975.975,0,0,0,.9-1.015A1.2,1.2,0,0,0,7.958,15.676Z" transform="translate(-1.44 -3.719)" fill="#fff"/>
      <rect id="Rectangle_83" data-name="Rectangle 83" width="0.929" height="16.029" transform="translate(9.913 3.435)" fill="#395e00"/>
      <path id="Path_85" data-name="Path 85" d="M15.363.989,6.717,24.208A4.129,4.129,0,1,0,2.7,31.3a4.172,4.172,0,0,0,5.332-2.512L16.981,4.424A2.667,2.667,0,0,0,15.363.989ZM5.916,28.081a1.9,1.9,0,1,1-1.13-2.442A1.9,1.9,0,0,1,5.916,28.081Z" transform="translate(0 -0.989)" fill="#2d5872"/>
      <path id="Path_86" data-name="Path 86" d="M15.923,1.122a2.661,2.661,0,0,1,.237,2.323L7.208,27.806a4.172,4.172,0,0,1-5.332,2.512,4.148,4.148,0,0,1-.688-.33,4.109,4.109,0,0,0,1.833,1.346,4.172,4.172,0,0,0,5.332-2.512L17.306,4.46A2.667,2.667,0,0,0,15.923,1.122Z" transform="translate(-0.324 -1.025)" fill="#1d4859"/>
      <g id="Group_113" data-name="Group 113" transform="translate(16.016 9.399)">
        <path id="Path_87" data-name="Path 87" d="M24.6,13.96H22.28c-.17,0-.258.167-.258.331,0,.2.109.337.258.337h.8v3.287c0,.152.148.258.359.258.178,0,.359-.089.359-.258V14.627h.8c.152,0,.258-.141.258-.342C24.859,14.128,24.778,13.96,24.6,13.96Z" transform="translate(-22.022 -13.926)" fill="#fff"/>
        <path id="Path_88" data-name="Path 88" d="M29.845,14.158a.434.434,0,0,0-.44-.244.429.429,0,0,0-.434.246l-1.112,3.622a.21.21,0,0,0-.009.07c0,.182.228.309.432.309a.246.246,0,0,0,.267-.168l.216-.749h1.287l.217.75a.247.247,0,0,0,.261.167c.206,0,.437-.132.437-.309a.214.214,0,0,0-.014-.069Zm-.916,2.485.476-1.632.476,1.632Z" transform="translate(-23.611 -13.913)" fill="#fff"/>
        <path id="Path_89" data-name="Path 89" d="M37.386,17.681l-.949-1.624.922-1.613a.368.368,0,0,0,.053-.176c0-.195-.227-.331-.432-.331a.309.309,0,0,0-.279.2l-.728,1.331-.717-1.33a.315.315,0,0,0-.279-.2c-.207,0-.437.136-.437.331a.368.368,0,0,0,.053.176l.922,1.613-.951,1.628a.328.328,0,0,0-.04.145c0,.2.242.353.443.353a.294.294,0,0,0,.245-.167l.762-1.388.771,1.386a.283.283,0,0,0,.24.169c.207,0,.448-.154.448-.353A.342.342,0,0,0,37.386,17.681Z" transform="translate(-25.431 -13.92)" fill="#fff"/>
      </g>
    </g>
  </g>
</svg>
