<svg xmlns="http://www.w3.org/2000/svg" xmlns:xlink="http://www.w3.org/1999/xlink" width="46" height="46" viewBox="0 0 46 46">
  <defs>
    <filter id="Ellipse_387" x="0" y="0" width="46" height="46" filterUnits="userSpaceOnUse">
      <feOffset dy="3" input="SourceAlpha"/>
      <feGaussianBlur stdDeviation="3" result="blur"/>
      <feFlood flood-opacity="0.161"/>
      <feComposite operator="in" in2="blur"/>
      <feComposite in="SourceGraphic"/>
    </filter>
    <clipPath id="clip-path">
      <rect id="Rectangle_3929" data-name="Rectangle 3929" width="16" height="16" transform="translate(-1246 2620)" fill="#fff" stroke="#707070" stroke-width="1"/>
    </clipPath>
  </defs>
  <g id="Group_14231" data-name="Group 14231" transform="translate(1092 -2594)">
    <g transform="matrix(1, 0, 0, 1, -1092, 2594)" filter="url(#Ellipse_387)">
      <circle id="Ellipse_387-2" data-name="Ellipse 387" cx="14" cy="14" r="14" transform="translate(9 6)" fill="#29cb97"/>
    </g>
    <g id="Mask_Group_132" data-name="Mask Group 132" transform="translate(169 -14)" clip-path="url(#clip-path)">
      <g id="user_11_" data-name="user (11)" transform="translate(-1244.65 2620)">
        <path id="Path_42529" data-name="Path 42529" d="M8,7.849A3.8,3.8,0,0,0,10.779,6.7a3.8,3.8,0,0,0,1.15-2.775,3.8,3.8,0,0,0-1.15-2.775A3.8,3.8,0,0,0,8,0,3.8,3.8,0,0,0,5.229,1.15,3.8,3.8,0,0,0,4.08,3.924,3.8,3.8,0,0,0,5.23,6.7,3.8,3.8,0,0,0,8,7.849Zm0,0" transform="translate(-1.31 0)" fill="#fff"/>
        <path id="Path_42530" data-name="Path 42530" d="M13.562,16.252a9.694,9.694,0,0,0-.132-1.03,8.112,8.112,0,0,0-.253-1.035,5.113,5.113,0,0,0-.426-.965,3.643,3.643,0,0,0-.642-.836,2.829,2.829,0,0,0-.922-.579,3.186,3.186,0,0,0-1.177-.213,1.194,1.194,0,0,0-.638.271c-.191.125-.415.269-.664.428a3.808,3.808,0,0,1-.86.379,3.339,3.339,0,0,1-2.1,0,3.8,3.8,0,0,1-.859-.379c-.247-.158-.471-.3-.665-.429a1.193,1.193,0,0,0-.638-.271,3.182,3.182,0,0,0-1.177.213,2.827,2.827,0,0,0-.922.579,3.644,3.644,0,0,0-.641.836,5.123,5.123,0,0,0-.426.966,8.131,8.131,0,0,0-.253,1.035,9.66,9.66,0,0,0-.132,1.03c-.022.312-.033.635-.033.962a2.706,2.706,0,0,0,.8,2.047,2.893,2.893,0,0,0,2.071.755H10.72a2.892,2.892,0,0,0,2.071-.755,2.7,2.7,0,0,0,.8-2.047c0-.328-.011-.652-.033-.962Zm0,0" transform="translate(0 -3.722)" fill="#fff"/>
      </g>
    </g>
  </g>
</svg>
