<svg xmlns="http://www.w3.org/2000/svg" xmlns:xlink="http://www.w3.org/1999/xlink" width="36" height="36" viewBox="0 0 36 36">
  <defs>
    <clipPath id="clip-path">
      <rect id="Rectangle_18568" data-name="Rectangle 18568" width="36" height="36" transform="translate(874 32)" fill="#363636" stroke="#707070" stroke-width="1"/>
    </clipPath>
  </defs>
  <g id="Mask_Group_153" data-name="Mask Group 153" transform="translate(-874 -32)" clip-path="url(#clip-path)">
    <g id="mobile-pay" transform="translate(874 33.221)">
      <path id="Path_8975" data-name="Path 8975" d="M19.731,16.526c-.627,4.077-2.268,8.531-2.08,11.756.063,1.092,4.52,1.43,4.52,1.43a8.787,8.787,0,0,1-2.6.373c-9.482,0-17.135-5.458-17.135-11.966S10.124,6.332,19.606,6.332c.778,0,1.465.031,2.073.091,0,0-1.048,4.194-1.948,10.1Z" transform="translate(-2.126 -3.992)" fill="#74a9e8"/>
      <g id="Group_14660" data-name="Group 14660" transform="translate(0 8.937)">
        <path id="Path_8976" data-name="Path 8976" d="M9.095,22.445l-.546-.314.154-.273a5.183,5.183,0,0,0-.006-5.6L8.549,16l.546-.314.154.273a5.772,5.772,0,0,1,0,6.223Z" transform="translate(-2.737 -13.863)" fill="#fff"/>
        <path id="Path_8977" data-name="Path 8977" d="M7.026,21.458l-.533-.314.163-.27a3.137,3.137,0,0,0,0-3.312L6.493,17.3l.533-.314.163.267a3.764,3.764,0,0,1,0,3.965Z" transform="translate(-2.531 -13.993)" fill="#fff"/>
        <path id="Path_8978" data-name="Path 8978" d="M11.439,23.247l-.558-.282.141-.279a7.393,7.393,0,0,0,0-7.449l-.141-.282.558-.282.141.279a8.041,8.041,0,0,1,0,8.017Z" transform="translate(-2.97 -13.762)" fill="#fff"/>
        <path id="Path_8979" data-name="Path 8979" d="M13.731,24.056l-.561-.282.141-.279a9.751,9.751,0,0,0,0-9.268l-.141-.282.561-.282.141.279a10.358,10.358,0,0,1,0,9.836Z" transform="translate(-3.199 -13.661)" fill="#fff"/>
        <path id="Path_8980" data-name="Path 8980" d="M16.579,31.5C8.185,30.406,2.091,25.35,2.091,19.481v-.314h.627v.314c0,5.552,5.865,10.351,13.945,11.395l.314.041Z" transform="translate(-2.091 -14.212)" fill="#0b0a39"/>
      </g>
      <path id="Path_8981" data-name="Path 8981" d="M36.873,26.138A7.606,7.606,0,0,1,34.85,28.4" transform="translate(-5.367 -5.972)" fill="#ffac88"/>
      <path id="Path_8982" data-name="Path 8982" d="M39.758,23.1a2.823,2.823,0,0,0-1-2.268l-2.92-2.346L37.949,7.869A1.515,1.515,0,0,0,36.76,6.091L25.011,3.761a1.512,1.512,0,0,0-1.775,1.189L18.816,27.241A1.512,1.512,0,0,0,20,29.016L27.482,30.5c-.295,1.938,1.226,3.359,1.349,3.642a1.959,1.959,0,0,1-.351,1.622,5.413,5.413,0,0,0,4.077,1.527c3.322,0,5.592-1.832,6.006-3.3a7.528,7.528,0,0,1-.414-2.8C38.149,29.813,39.705,23.8,39.758,23.1ZM33.106,6.019l-.028.138a.941.941,0,0,1-1.107.74l-2.823-.561a.941.941,0,0,1-.74-1.1l.028-.141ZM27.6,29.888,20.124,28.4a.888.888,0,0,1-.681-1.038L23.85,5.078a.881.881,0,0,1,1.038-.7l2.926.58-.028.141a1.568,1.568,0,0,0,1.233,1.844l2.823.558a1.568,1.568,0,0,0,1.844-1.233l.028-.141,2.923.58a.888.888,0,0,1,.7,1.041L33.849,25.227a8.432,8.432,0,0,1-.822.709,6.822,6.822,0,0,1-1.606-2.584c-1.226-2.66-1.437-2.462-1.656-2.792-1.129-1.095-3.027-1.741-3.987-.583-.693.837-.289,1.568.314,2.638C27.539,25.152,28.247,27.034,27.6,29.888Zm10.266,4.134c-1.129,2.625-6.38,3.516-8.616,1.647a2.227,2.227,0,0,0,.154-1.75c-.176-.461-1.716-1.756-1.255-3.579.794-3.18.078-5.235-1.49-8.011-.627-1.085-.79-1.449-.392-1.929.706-.894,2.4-.129,3.243.812a10.45,10.45,0,0,1,1.342,2.4A8.118,8.118,0,0,0,32.475,26.3a4.5,4.5,0,0,0,2.964,1.161v-.627a3.347,3.347,0,0,1-1.882-.533,7.026,7.026,0,0,0,2.114-2.537l-.546-.285a6.819,6.819,0,0,1-.452.775L35.7,19.192l2.682,2.152a2.255,2.255,0,0,1,.753,1.719c-.05.649-1.609,6.662-1.631,8.133a8.3,8.3,0,0,0,.373,2.826Z" transform="translate(-3.761 -3.732)" fill="#0b0a39"/>
      <circle id="Ellipse_82" data-name="Ellipse 82" cx="3.582" cy="3.582" r="3.582" transform="translate(21.626 7.745)" fill="#f08234"/>
      <path id="Path_8983" data-name="Path 8983" d="M29.2,17.517l-1.255-1.9.524-.345.91,1.374,2.324-1.537.345.524Z" transform="translate(-4.677 -4.87)" fill="#fff"/>
      <path id="Path_8984" data-name="Path 8984" d="M29.236,20.209l.125-.627a3.262,3.262,0,0,0,3.855-2.547l.627.125a3.9,3.9,0,0,1-4.608,3.049Z" transform="translate(-4.805 -5.062)" fill="#0b0a39"/>
    </g>
  </g>
</svg>
