<svg xmlns="http://www.w3.org/2000/svg" xmlns:xlink="http://www.w3.org/1999/xlink" width="60" height="60" viewBox="0 0 60 60">
  <defs>
    <clipPath id="clip-path">
      <rect id="Rectangle_5058" data-name="Rectangle 5058" width="60" height="60" transform="translate(653 293)" fill="#fff" stroke="#707070" stroke-width="1"/>
    </clipPath>
  </defs>
  <g id="Mask_Group_203" data-name="Mask Group 203" transform="translate(-653 -293)" clip-path="url(#clip-path)">
    <g id="trash_6_" data-name="trash (6)" transform="translate(652.999 292.996)">
      <g id="Group_14952" data-name="Group 14952">
        <path id="Path_9055" data-name="Path 9055" d="M57.2,38.879c.026-.1.051-.2.076-.3C57.256,38.678,57.23,38.778,57.2,38.879Z" fill="#bfe5fe"/>
        <path id="Path_9056" data-name="Path 9056" d="M30,3.856a27.52,27.52,0,0,0-17.476,6.1,36.424,36.424,0,0,0-1.142,6.767c0,15.5,13.075,28.071,28.58,28.071,6.607,0,12.678-3.076,17.474-6.9a27.476,27.476,0,0,0,.639-5.971A28.074,28.074,0,0,0,30,3.856Z" fill="#ffc195"/>
        <path id="Path_9057" data-name="Path 9057" d="M39.96,44A28.09,28.09,0,0,1,12.525,9.959l0,0a28.079,28.079,0,0,0,4.085,46.648l29.089-1.4A28.118,28.118,0,0,0,57.2,38.879c.026-.1.051-.2.076-.3.012-.048.118-.5.156-.676A27.952,27.952,0,0,1,39.96,44Z" fill="#f08234"/>
      </g>
      <g id="Group_14958" data-name="Group 14958">
        <path id="Path_9058" data-name="Path 9058" d="M30.712,22.455v36.5c3.924-.1,7.647.039,11.011-1.51A28.012,28.012,0,0,0,45.7,55.207l1.456-32.752Z" fill="#4572e3"/>
        <path id="Path_9059" data-name="Path 9059" d="M41.723,57.444H36.276a5.134,5.134,0,0,1-5.134-5.134V22.455H15.09l1.518,34.154a28.121,28.121,0,0,0,25.115.836Z" fill="#3342ae"/>
        <g id="Group_14954" data-name="Group 14954">
          <g id="Group_14953" data-name="Group 14953">
            <path id="Path_9060" data-name="Path 9060" d="M29.3,10.751,16.567,23.486l-6.275-6.275a4.088,4.088,0,0,1,0-5.774l6.961-6.961a4.088,4.088,0,0,1,5.774,0Zm-12.735,8,8-8L20.658,6.844a.735.735,0,0,0-1.038,0L12.66,13.8a.735.735,0,0,0,0,1.038Z" fill="#3342ae"/>
          </g>
          <path id="Path_9061" data-name="Path 9061" d="M12.878,7.532H37.444v7.877H12.878Z" transform="translate(-0.741 21.154) rotate(-45)" fill="#4572e3"/>
          <path id="Path_9062" data-name="Path 9062" d="M6.814,19.781h12.2v7.877H6.814Z" transform="translate(-12.992 16.08) rotate(-45)" fill="#1a396b"/>
        </g>
        <g id="Group_14955" data-name="Group 14955">
          <path id="Path_9063" data-name="Path 9063" d="M31.121,57.465a1.954,1.954,0,0,1-1.954-1.954V31.542a1.954,1.954,0,0,1,3.907,0V55.512a1.954,1.954,0,0,1-1.954,1.954Z" fill="#1a396b"/>
        </g>
        <g id="Group_14956" data-name="Group 14956">
          <path id="Path_9064" data-name="Path 9064" d="M23.344,57.465a1.954,1.954,0,0,1-1.949-1.854L20.167,31.642a1.954,1.954,0,0,1,3.9-.2L25.3,55.411a1.954,1.954,0,0,1-1.851,2.051l-.1,0Z" fill="#1a396b"/>
        </g>
        <g id="Group_14957" data-name="Group 14957">
          <path id="Path_9065" data-name="Path 9065" d="M39.088,57.465l-.1,0a1.954,1.954,0,0,1-1.851-2.051l1.228-23.969a1.954,1.954,0,0,1,3.9.2L41.038,55.611A1.954,1.954,0,0,1,39.088,57.465Z" fill="#1a396b"/>
        </g>
        <path id="Path_9066" data-name="Path 9066" d="M37.114,10.709,35.15,13.743a1.546,1.546,0,0,1-1.3.705,1.545,1.545,0,0,0-1.247,2.458l1.5,2.054a1.545,1.545,0,0,0,1.552.6l3.5-.7a1.545,1.545,0,0,1,1.031.151l2.953,1.57a1.545,1.545,0,0,0,2.179-.839l1.362-3.769a1.545,1.545,0,0,0-.772-1.912l-2.19-1.076a1.545,1.545,0,0,1-.795-.93L42.381,10.3a1.545,1.545,0,0,0-1.946-1.015l-2.494.8a1.546,1.546,0,0,0-.827.632Z" fill="#fff"/>
      </g>
    </g>
  </g>
</svg>
