<svg xmlns="http://www.w3.org/2000/svg" xmlns:xlink="http://www.w3.org/1999/xlink" width="60" height="60" viewBox="0 0 60 60">
  <defs>
    <clipPath id="clip-path">
      <rect id="Rectangle_5058" data-name="Rectangle 5058" width="60" height="60" transform="translate(653 282)" fill="#fff" stroke="#707070" stroke-width="1"/>
    </clipPath>
  </defs>
  <g id="Mask_Group_201" data-name="Mask Group 201" transform="translate(-653 -282)" clip-path="url(#clip-path)">
    <g id="Layer_x0020_1" transform="translate(652.999 281.999)">
      <g id="_1822602014384">
        <path id="Path_9043" data-name="Path 9043" d="M34.606,10.745H30.632a.7.7,0,0,0,.7-.7V7.255a2.2,2.2,0,0,0-2.2-2.193H22.475a2.2,2.2,0,0,0-2.2,2.193v2.789a.7.7,0,0,0,.7.7H17a.7.7,0,0,1-.7-.7V5.168a3.322,3.322,0,0,1,3.324-3.312H31.984a3.323,3.323,0,0,1,3.325,3.312v4.876a.7.7,0,0,1-.7.7Z" fill="#cad0d7" fill-rule="evenodd"/>
        <path id="Path_9044" data-name="Path 9044" d="M37.519,58.146H14.089c-2.818,0-5.033-1.679-5.385-4.082L3.416,17.946a.7.7,0,0,1,.7-.8H47.5a.7.7,0,0,1,.7.8L46.448,29.855a.7.7,0,0,1-.555.586,10.527,10.527,0,0,0-2.87,19.617.7.7,0,0,1,.363.718L42.9,54.064c-.352,2.4-2.567,4.082-5.385,4.082Z" fill="#64c24c" fill-rule="evenodd"/>
        <path id="Path_9045" data-name="Path 9045" d="M16.337,52.492A3.446,3.446,0,0,1,12.92,49.36l-1.94-22.754A3.519,3.519,0,0,1,14.488,22.8,3.447,3.447,0,0,1,17.9,25.929l1.94,22.754a3.519,3.519,0,0,1-3.508,3.809Zm18.935,0c-.116,0-.234-.006-.352-.018a3.531,3.531,0,0,1-3.156-3.79L33.7,25.929A3.447,3.447,0,0,1,37.119,22.8a3.519,3.519,0,0,1,3.508,3.809l-.6,7.053a.708.708,0,0,1-.159.388,10.509,10.509,0,0,0-1.022,11.977.683.683,0,0,1,.091.409l-.25,2.929a3.446,3.446,0,0,1-3.416,3.13Zm-9.467.047a3.474,3.474,0,0,1-3.477-3.463V26.214a3.477,3.477,0,0,1,6.953,0V49.075A3.474,3.474,0,0,1,25.8,52.538Z" fill="#519e3d" fill-rule="evenodd"/>
        <path id="Path_9046" data-name="Path 9046" d="M50.9,18.544H.7a.7.7,0,0,1-.7-.7v-3.9a4.614,4.614,0,0,1,4.617-4.6h42.37a4.615,4.615,0,0,1,4.619,4.6v3.9A.7.7,0,0,1,50.9,18.544Z" fill="#5aaf44" fill-rule="evenodd"/>
        <path id="Path_9047" data-name="Path 9047" d="M48.016,52.7A11.939,11.939,0,1,1,60,40.765,11.976,11.976,0,0,1,48.016,52.7Z" fill="#df082c" fill-rule="evenodd"/>
        <path id="Path_9048" data-name="Path 9048" d="M48.016,49.839a9.074,9.074,0,1,1,9.109-9.074,9.1,9.1,0,0,1-9.109,9.074Z" fill="#e3433b" fill-rule="evenodd"/>
        <path id="Path_9049" data-name="Path 9049" d="M48.016,33.093a7.673,7.673,0,1,0,7.7,7.673A7.7,7.7,0,0,0,48.016,33.093Z" fill="#fff" fill-rule="evenodd"/>
        <g id="Group_14934" data-name="Group 14934">
          <path id="Path_9050" data-name="Path 9050" d="M51.594,45.03a.7.7,0,0,1-.5-.205l-6.7-6.669a.7.7,0,0,1,.995-.991l6.7,6.671a.7.7,0,0,1-.5,1.2Z" fill="#696b69" fill-rule="evenodd"/>
          <path id="Path_9051" data-name="Path 9051" d="M44.668,44.8a.7.7,0,0,1-.5-1.2l6.7-6.671a.705.705,0,0,1,.994,0,.7.7,0,0,1,0,.99l-6.7,6.671a.7.7,0,0,1-.5.205Z" fill="#696b69" fill-rule="evenodd"/>
        </g>
      </g>
    </g>
  </g>
</svg>
