<svg xmlns="http://www.w3.org/2000/svg" xmlns:xlink="http://www.w3.org/1999/xlink" width="24" height="24" viewBox="0 0 24 24">
  <defs>
    <clipPath id="clip-path">
      <rect id="Rectangle_18605" data-name="Rectangle 18605" width="24" height="24" transform="translate(0.14)" fill="#fff" stroke="#707070" stroke-width="1"/>
    </clipPath>
    <linearGradient id="linear-gradient" x1="0.146" y1="0.146" x2="0.854" y2="0.854" gradientUnits="objectBoundingBox">
      <stop offset="0" stop-color="#f08234"/>
      <stop offset="1" stop-color="#f44336"/>
    </linearGradient>
    <linearGradient id="linear-gradient-2" x1="0.324" y1="0.324" x2="0.802" y2="0.802" gradientUnits="objectBoundingBox">
      <stop offset="0" stop-color="#b33128"/>
      <stop offset="0.93" stop-color="#b33128" stop-opacity="0"/>
    </linearGradient>
  </defs>
  <g id="Mask_Group_165" data-name="Mask Group 165" transform="translate(-0.14)" clip-path="url(#clip-path)">
    <g id="Layer_2" data-name="Layer 2">
      <g id="close">
        <circle id="background" cx="12" cy="12" r="12" transform="translate(0.14)" fill="url(#linear-gradient)"/>
        <path id="Path_8993" data-name="Path 8993" d="M23.99,12.5A12,12,0,0,1,12.5,23.99L6.255,17.746,17.746,6.254Z" fill="url(#linear-gradient-2)"/>
        <path id="Path_8994" data-name="Path 8994" d="M16.341,18.328a1.975,1.975,0,0,1-1.406-.582L12,14.813,9.066,17.747a1.989,1.989,0,0,1-2.812-2.812L9.188,12,6.253,9.066A1.989,1.989,0,0,1,9.065,6.253L12,9.188l2.934-2.935a1.989,1.989,0,0,1,2.813,2.813L14.813,12l2.935,2.934a1.988,1.988,0,0,1-1.406,3.394Z" fill="#fff"/>
      </g>
    </g>
  </g>
</svg>
