<svg xmlns="http://www.w3.org/2000/svg" xmlns:xlink="http://www.w3.org/1999/xlink" width="24" height="24" viewBox="0 0 24 24">
  <defs>
    <clipPath id="clip-path">
      <rect id="Rectangle_5226" data-name="Rectangle 5226" width="24" height="24" transform="translate(1376 36)" fill="#fff" stroke="#707070" stroke-width="1"/>
    </clipPath>
  </defs>
  <g id="Mask_Group_15619" data-name="Mask Group 15619" transform="translate(-1376 -36)" clip-path="url(#clip-path)">
    <path id="wallet-arrow" d="M15.288,4.2A1,1,0,0,1,15.3,2.789L17.5.612a2.107,2.107,0,0,1,2.97,0L22.7,2.784A1,1,0,1,1,21.3,4.216L20,2.948V9a1,1,0,0,1-2,0V2.93L16.7,4.211A1,1,0,0,1,15.289,4.2ZM24,11V21a3,3,0,0,1-3,3H5a5.006,5.006,0,0,1-5-5V9A4.968,4.968,0,0,1,.639,6.556,1.027,1.027,0,0,1,.706,6.44,5,5,0,0,1,5,4h7a1,1,0,0,1,0,2H5A2.992,2.992,0,0,0,2.765,7,3.012,3.012,0,0,0,5,8H16V9a3,3,0,0,0,6,0V8.184A3,3,0,0,1,24,11Zm-4,5a1.5,1.5,0,1,0-1.5,1.5A1.5,1.5,0,0,0,20,16Z" transform="translate(1376 36)" fill="#fff"/>
  </g>
</svg>
