<svg xmlns="http://www.w3.org/2000/svg" xmlns:xlink="http://www.w3.org/1999/xlink" width="20" height="20" viewBox="0 0 20 20">
  <defs>
    <clipPath id="clip-path">
      <rect id="Rectangle_3565" data-name="Rectangle 3565" width="20" height="20" transform="translate(491 40)" fill="#363636"/>
    </clipPath>
  </defs>
  <g id="Mask_Group_167" data-name="Mask Group 167" transform="translate(-491 -40)" clip-path="url(#clip-path)">
    <g id="motorbike" transform="translate(491 40.396)">
      <path id="Path_8996" data-name="Path 8996" d="M14.687,10.617l-.6-1.756A.407.407,0,0,0,14,8.716a.814.814,0,0,1-.769.757c-.1.005-.2.008-.3.008h-.009a5.381,5.381,0,0,1-.788-.057.406.406,0,0,0,.55.39h0l.773-.292,1.834,5.349a2.829,2.829,0,0,1,4.47.393c.3-.015.382-.193-.107-.829a3.176,3.176,0,0,0-2.655-1.215c-.048-.13-.1-.267-.15-.411a3.826,3.826,0,0,0-2.158-2.191Z" fill="#363636"/>
      <path id="Path_8997" data-name="Path 8997" d="M11,2.563c0,.005,0,.011,0,.017.021.393.11.667.112.939a.861.861,0,0,1-.1.422.082.082,0,0,1-.033.033,1.47,1.47,0,0,1-.709.157,5.114,5.114,0,0,1-.652-.057,2.654,2.654,0,0,1-.549-.127A1.829,1.829,0,0,0,12.146,2a2.306,2.306,0,0,0-.991.294A.329.329,0,0,0,11,2.563Z" fill="#363636"/>
      <path id="Path_8998" data-name="Path 8998" d="M8.1,6.393h0l0-.007a.813.813,0,1,1,1.48-.673l0,.008.03.058c.028.053.076.138.142.242a4.516,4.516,0,0,0,.336.457A1.481,1.481,0,0,0,9.278,4.7a1.861,1.861,0,0,0-2.11,1.394,8.984,8.984,0,0,0-.462,4.514,1.536,1.536,0,0,0,1.436,1.414l.008,0,3.083.479,1.155,2.928a1.016,1.016,0,1,0,1.891-.746l-1.369-3.469a1.019,1.019,0,0,0-.789-.631l-2.555-.4a10.225,10.225,0,0,1,.147-1.812,5.6,5.6,0,0,1-.5-.44A5.81,5.81,0,0,1,8.1,6.393Z" fill="#363636"/>
      <path id="Path_8999" data-name="Path 8999" d="M12.917,9.319h.009q.145,0,.292-.008a.65.65,0,1,0-.066-1.3q-.117.006-.226.006A3.7,3.7,0,0,1,10.25,6.9a4.668,4.668,0,0,1-.637-.789c-.068-.107-.118-.195-.149-.253-.015-.029-.027-.051-.033-.064l-.006-.012h0a.65.65,0,0,0-1.184.539,5.568,5.568,0,0,0,1.093,1.5,5.016,5.016,0,0,0,3.583,1.5Z" fill="#363636"/>
      <path id="Path_9000" data-name="Path 9000" d="M6,11.534V6.471a.434.434,0,0,0-.434-.434H.434A.434.434,0,0,0,0,6.471v5.063a.434.434,0,0,0,.434.434H5.569A.434.434,0,0,0,6,11.534Z" fill="#363636"/>
      <path id="Path_9001" data-name="Path 9001" d="M7.622,16.006a2.422,2.422,0,1,0-1.516,3.072A2.422,2.422,0,0,0,7.622,16.006ZM5.635,17.691a.957.957,0,1,1,.6-1.214.957.957,0,0,1-.6,1.214Z" fill="#363636"/>
      <path id="Path_9002" data-name="Path 9002" d="M16.112,10.481c.685,0,.685-2.48,0-2.48a1.24,1.24,0,1,0,0,2.48Z" fill="#363636"/>
      <path id="Path_9003" data-name="Path 9003" d="M14.573,16.359H9.389a6.881,6.881,0,0,1-.653-2.428.324.324,0,0,0,.231-.31v-.894a.325.325,0,0,0-.325-.325H2.014a.325.325,0,0,0-.325.325v.894a.325.325,0,0,0,.325.325H2.05a10.834,10.834,0,0,0-.9,3.388h1.4a2.828,2.828,0,1,1,5.548,0H14.6a2.8,2.8,0,0,1-.023-.976Z" fill="#363636"/>
      <path id="Path_9004" data-name="Path 9004" d="M16.593,14.49a2.422,2.422,0,1,0,3.072,1.516,2.422,2.422,0,0,0-3.072-1.516Zm1.085,3.2a.957.957,0,1,1,.6-1.214A.957.957,0,0,1,17.678,17.691Z" fill="#363636"/>
      <path id="Path_9005" data-name="Path 9005" d="M12.348,1.819a2.116,2.116,0,0,0-1.819-1.8A2.125,2.125,0,0,0,10.252,0h0A2.114,2.114,0,0,0,8.159,1.84a2.139,2.139,0,0,0-.018.275,2.1,2.1,0,0,0,.033.37,1.812,1.812,0,0,0,.441,1,1.679,1.679,0,0,0,1.023.427,4.931,4.931,0,0,0,.631.055,1.325,1.325,0,0,0,.61-.126.694.694,0,0,0,.073-.323c0-.233-.088-.517-.111-.93,0-.009,0-.018,0-.027a.491.491,0,0,1,.219-.4,1.431,1.431,0,0,1,.464-.21,4.727,4.727,0,0,1,.828-.138Z" fill="#363636"/>
    </g>
  </g>
</svg>
