<svg xmlns="http://www.w3.org/2000/svg" xmlns:xlink="http://www.w3.org/1999/xlink" width="20" height="20" viewBox="0 0 20 20">
  <defs>
    <clipPath id="clip-path">
      <rect id="Rectangle_3565" data-name="Rectangle 3565" width="20" height="20" transform="translate(526 40)" fill="#363636"/>
    </clipPath>
  </defs>
  <g id="Mask_Group_96" data-name="Mask Group 96" transform="translate(-526 -40)" clip-path="url(#clip-path)">
    <g id="table" transform="translate(526 40)">
      <g id="Group_523" data-name="Group 523">
        <g id="Group_522" data-name="Group 522">
          <path id="Path_3446" data-name="Path 3446" d="M18.75,3.333a1.251,1.251,0,0,0-1.25,1.25V10H14.583a1.25,1.25,0,0,0,0,2.5h2.083v3.333h-1.25a.417.417,0,0,0,0,.833H18.75a.417.417,0,1,0,0-.833H17.5V12.5h1.25A1.251,1.251,0,0,0,20,11.25V4.583A1.251,1.251,0,0,0,18.75,3.333Z" fill="#363636"/>
          <path id="Path_3447" data-name="Path 3447" d="M5.417,10H2.5V4.583a1.25,1.25,0,0,0-2.5,0V11.25A1.251,1.251,0,0,0,1.25,12.5H2.5v3.333H1.25a.417.417,0,1,0,0,.833H4.583a.417.417,0,1,0,0-.833H3.333V12.5H5.417a1.25,1.25,0,0,0,0-2.5Z" fill="#363636"/>
          <path id="Path_3448" data-name="Path 3448" d="M11.132,9.521a2.826,2.826,0,0,0,3.147,0,1.85,1.85,0,0,1,1.137-.355.416.416,0,0,0,.417-.417V7.5a1.668,1.668,0,0,0-1.667-1.667H5.833A1.668,1.668,0,0,0,4.167,7.5V8.75a.416.416,0,0,0,.417.417,1.842,1.842,0,0,1,1.134.355A2.647,2.647,0,0,0,7.289,10,2.648,2.648,0,0,0,8.86,9.521a2.035,2.035,0,0,1,.723-.316v6.628H7.917a.417.417,0,1,0,0,.833h4.167a.417.417,0,0,0,0-.833H10.417V9.208A2.057,2.057,0,0,1,11.132,9.521Z" fill="#363636"/>
        </g>
      </g>
    </g>
  </g>
</svg>
