<svg xmlns="http://www.w3.org/2000/svg" xmlns:xlink="http://www.w3.org/1999/xlink" width="20" height="20" viewBox="0 0 20 20">
  <defs>
    <clipPath id="clip-path">
      <rect id="Rectangle_3564" data-name="Rectangle 3564" width="20" height="20" transform="translate(402 55)" fill="#363636"/>
    </clipPath>
  </defs>
  <g id="Mask_Group_95" data-name="Mask Group 95" transform="translate(-402 -55)" clip-path="url(#clip-path)">
    <g id="icon_18_" transform="translate(399.173 52.183)">
      <path id="Path_3444" data-name="Path 3444" d="M12.822,21.384H4.037A1.2,1.2,0,0,1,2.827,20.2a1.162,1.162,0,0,1,1.157-1.263c2.578-.013,5.168-.026,7.746-.026,3.288,0,6.562.013,9.85,0a1.338,1.338,0,0,1,1.223.96,1.28,1.28,0,0,1-.829,1.486.579.579,0,0,1-.21.026Z" fill="#363636"/>
      <path id="Path_3445" data-name="Path 3445" d="M21.5,15.676a8.771,8.771,0,0,0-7.036-7.5c-.053-.013-.118-.026-.171-.039a.253.253,0,0,1-.2-.25V6.773c.118-.026.224-.053.329-.079a1.249,1.249,0,0,0-.158-2.433q-1.381-.02-2.762,0A1.2,1.2,0,0,0,10.35,5.339a1.242,1.242,0,0,0,.881,1.341c.105.026.21.053.342.079,0,.408.013.789-.013,1.184,0,.066-.118.158-.2.171a8.682,8.682,0,0,0-6.378,4.734,8.176,8.176,0,0,0-.907,3.985,1.2,1.2,0,0,0,1.092,1.157H20.384a1.178,1.178,0,0,0,1.157-1.118,6.14,6.14,0,0,0-.039-1.2Zm-3.2.526h-.053a.477.477,0,0,1-.46-.408,5.6,5.6,0,0,0-2.946-4.248.456.456,0,0,1,.381-.829A6.513,6.513,0,0,1,18.7,15.676a.463.463,0,0,1-.395.526Z" fill="#363636"/>
    </g>
  </g>
</svg>
