<svg xmlns="http://www.w3.org/2000/svg" xmlns:xlink="http://www.w3.org/1999/xlink" width="20" height="20" viewBox="0 0 20 20">
  <defs>
    <clipPath id="clip-path">
      <rect id="Rectangle_18716" data-name="Rectangle 18716" width="20" height="20" transform="translate(1070 675)" fill="#fff" stroke="#707070" stroke-width="1"/>
    </clipPath>
  </defs>
  <g id="Mask_Group_199" data-name="Mask Group 199" transform="translate(-1070 -675)" clip-path="url(#clip-path)">
    <path id="add_6_" data-name="add (6)" d="M10,0A10,10,0,1,0,20,10,10,10,0,0,0,10,0Zm0,18.333A8.333,8.333,0,1,1,18.333,10,8.333,8.333,0,0,1,10,18.333ZM14.167,10a.833.833,0,0,1-.833.833h-2.5v2.5a.833.833,0,0,1-1.667,0v-2.5h-2.5a.833.833,0,1,1,0-1.667h2.5v-2.5a.833.833,0,1,1,1.667,0v2.5h2.5A.833.833,0,0,1,14.167,10Z" transform="translate(1070 675)" fill="#fff"/>
  </g>
</svg>
