<svg xmlns="http://www.w3.org/2000/svg" xmlns:xlink="http://www.w3.org/1999/xlink" width="36" height="36" viewBox="0 0 36 36">
  <defs>
    <clipPath id="clip-path">
      <rect id="Rectangle_19293" data-name="Rectangle 19293" width="36" height="36" fill="#fff" stroke="#707070" stroke-width="1"/>
    </clipPath>
    <clipPath id="clip-path-2">
      <rect id="Rectangle_19293-2" data-name="Rectangle 19293" width="36" height="36" transform="translate(0 0.001)" fill="#fff" stroke="#707070" stroke-width="0.9"/>
    </clipPath>
  </defs>
  <g id="Mask_Group_15636" data-name="Mask Group 15636" clip-path="url(#clip-path)">
    <g id="Mask_Group_15631" data-name="Mask Group 15631" transform="translate(0 0)" clip-path="url(#clip-path-2)">
      <g id="Exp-4.-S" transform="translate(-0.017 0.661)">
        <g id="Group_17592" data-name="Group 17592">
          <path id="Path_46224" data-name="Path 46224" d="M18.331,4.985a1.9,1.9,0,0,1,3.406,0l3.317,6.683,7.38,1.089A1.9,1.9,0,0,1,33.488,16l-5.332,5.22L29.4,28.575a1.9,1.9,0,0,1-2.756,2L20.035,27.12l-6.612,3.458a1.9,1.9,0,0,1-2.756-2l1.245-7.358L6.58,16a1.9,1.9,0,0,1,1.053-3.24l7.38-1.089Z" transform="translate(-2.018 -2.696)" fill="#8e8e8e" fill-rule="evenodd"/>
          <path id="Path_46225" data-name="Path 46225" d="M20.035,4.033a1.9,1.9,0,0,1,1.7,1.057l3.317,6.683,7.38,1.089a1.9,1.9,0,0,1,1.53,1.293l.011.033L20.035,18.683Z" transform="translate(-2.018 -2.696)" fill="#a8a8a8" fill-rule="evenodd"/>
          <path id="Path_46226" data-name="Path 46226" d="M20.035,18.683,6.091,14.189l.011-.033a1.9,1.9,0,0,1,1.53-1.293l7.38-1.089,3.317-6.683a1.9,1.9,0,0,1,1.7-1.057Z" transform="translate(-2.018 -2.696)" fill="#a8a8a8" fill-rule="evenodd"/>
          <path id="Path_46227" data-name="Path 46227" d="M28.657,30.394l-.053.04a1.915,1.915,0,0,1-2,.146l-6.612-3.428L13.38,30.579a1.915,1.915,0,0,1-1.968-.124l8.581-11.772Z" transform="translate(-2.018 -2.696)" fill="#a8a8a8" fill-rule="evenodd"/>
          <g id="Group_17591" data-name="Group 17591">
            <path id="Path_46228" data-name="Path 46228" d="M19.565,30.487v6.4a.47.47,0,1,0,.939,0v-6.4a.47.47,0,0,0-.939,0Z" transform="translate(-2.018 -2.696)" fill="#dcdcdc" fill-rule="evenodd"/>
            <path id="Path_46229" data-name="Path 46229" d="M31.358,22.516l6.053,2.093a.47.47,0,1,0,.307-.887l-6.053-2.093a.47.47,0,0,0-.307.887Z" transform="translate(-2.018 -2.696)" fill="#dcdcdc" fill-rule="evenodd"/>
            <path id="Path_46230" data-name="Path 46230" d="M8.4,21.629,2.351,23.722a.47.47,0,1,0,.307.887l6.053-2.093a.47.47,0,0,0-.307-.887Z" transform="translate(-2.018 -2.696)" fill="#dcdcdc" fill-rule="evenodd"/>
            <path id="Path_46231" data-name="Path 46231" d="M28.041,8.721l3.631-5.277a.47.47,0,1,0-.774-.532L27.27,8.19a.47.47,0,0,0,.774.532Z" transform="translate(-2.018 -2.696)" fill="#dcdcdc" fill-rule="evenodd"/>
            <path id="Path_46232" data-name="Path 46232" d="M13.262,8.153,9.144,3.247a.47.47,0,1,0-.72.6l4.119,4.906a.47.47,0,1,0,.72-.6Z" transform="translate(-2.018 -2.696)" fill="#dcdcdc" fill-rule="evenodd"/>
          </g>
        </g>
      </g>
    </g>
  </g>
</svg>
