<svg xmlns="http://www.w3.org/2000/svg" xmlns:xlink="http://www.w3.org/1999/xlink" width="20" height="20" viewBox="0 0 20 20">
  <defs>
    <clipPath id="clip-path">
      <rect id="Rectangle_18715" data-name="Rectangle 18715" width="20" height="20" transform="translate(1098 675)" fill="#fff" stroke="#707070" stroke-width="1"/>
    </clipPath>
  </defs>
  <g id="Mask_Group_191" data-name="Mask Group 191" transform="translate(-1098 -675)" clip-path="url(#clip-path)">
    <g id="receipt" transform="translate(1098 675)">
      <path id="Path_9029" data-name="Path 9029" d="M13.333,0H6.667A4.172,4.172,0,0,0,2.5,4.167v15a.833.833,0,0,0,1.3.687l1.755-1.2,1.755,1.2a.833.833,0,0,0,.942,0l1.75-1.2,1.75,1.2a.833.833,0,0,0,.942,0l1.75-1.2,1.75,1.2a.833.833,0,0,0,1.3-.687v-15A4.172,4.172,0,0,0,13.333,0Zm2.5,17.583-.917-.627a.833.833,0,0,0-.943,0l-1.75,1.2-1.75-1.2a.833.833,0,0,0-.942,0l-1.75,1.2-1.75-1.2a.833.833,0,0,0-.941,0l-.923.627V4.167a2.5,2.5,0,0,1,2.5-2.5h6.667a2.5,2.5,0,0,1,2.5,2.5Z" fill="#fff"/>
      <rect id="Rectangle_18718" data-name="Rectangle 18718" width="8.333" height="1.667" rx="0.833" transform="translate(5.833 6.667)" fill="#fff"/>
      <rect id="Rectangle_18719" data-name="Rectangle 18719" width="6.667" height="1.667" rx="0.833" transform="translate(5.833 10)" fill="#fff"/>
    </g>
  </g>
</svg>
