<svg xmlns="http://www.w3.org/2000/svg" xmlns:xlink="http://www.w3.org/1999/xlink" width="20" height="20" viewBox="0 0 20 20">
  <defs>
    <clipPath id="clip-path">
      <rect id="Rectangle_18717" data-name="Rectangle 18717" width="20" height="20" transform="translate(783 675)" fill="#fff" stroke="#707070" stroke-width="1"/>
    </clipPath>
  </defs>
  <g id="Mask_Group_198" data-name="Mask Group 198" transform="translate(-783 -675)" clip-path="url(#clip-path)">
    <path id="list-check" d="M3.333,5a2.485,2.485,0,0,1-1.768-.732L.278,3.122a.834.834,0,0,1,1.11-1.245L2.709,3.056a.833.833,0,0,0,1.213.033l3-2.859A.833.833,0,0,1,8.074,1.437L5.083,4.282A2.47,2.47,0,0,1,3.333,5ZM20,3.333a.833.833,0,0,0-.833-.833H10.833a.833.833,0,0,0,0,1.667h8.333A.833.833,0,0,0,20,3.333ZM5.083,10.948,8.074,8.1A.833.833,0,1,0,6.926,6.9l-3,2.859a.852.852,0,0,1-1.178,0L1.422,8.435A.833.833,0,1,0,.244,9.613l1.321,1.321a2.5,2.5,0,0,0,3.522.014ZM20,10a.833.833,0,0,0-.833-.833H10.833a.833.833,0,0,0,0,1.667h8.333A.833.833,0,0,0,20,10ZM5.083,17.614,8.071,14.77a.833.833,0,1,0-1.148-1.207l-3,2.859a.833.833,0,0,1-1.213-.033L1.388,15.21a.834.834,0,1,0-1.11,1.245L1.565,17.6a2.5,2.5,0,0,0,3.522.014ZM20,16.666a.833.833,0,0,0-.833-.833H10.833a.833.833,0,0,0,0,1.667h8.333A.833.833,0,0,0,20,16.666Z" transform="translate(783.001 675.824)" fill="#fff"/>
  </g>
</svg>
