<svg xmlns="http://www.w3.org/2000/svg" xmlns:xlink="http://www.w3.org/1999/xlink" width="24" height="24" viewBox="0 0 24 24">
  <defs>
    <clipPath id="clip-path">
      <rect id="Rectangle_5226" data-name="Rectangle 5226" width="24" height="24" transform="translate(1376 36)" fill="#f89800" stroke="#707070" stroke-width="1"/>
    </clipPath>
  </defs>
  <g id="Mask_Group_15620" data-name="Mask Group 15620" transform="translate(-1376 -36)" clip-path="url(#clip-path)">
    <g id="diamond" transform="translate(1376 36)">
      <path id="Path_46198" data-name="Path 46198" d="M11.652,18.978a6.6,6.6,0,0,1,10.18-5.542c.007-.489.011-1.011.011-1.574A59.38,59.38,0,0,0,21.55,5.29h.028a5.6,5.6,0,0,0-3.64-4.68c-.052-.02-.1-.038-.157-.056a5.6,5.6,0,0,0-1.2-.261l-.039,0A31.606,31.606,0,0,0,11.454,0,35.657,35.657,0,0,0,6.085.29l-.039,0A5.586,5.586,0,0,0,4.79.576V.555A5.6,5.6,0,0,0,1.022,5.279a59.413,59.413,0,0,0-.294,6.584,59.413,59.413,0,0,0,.294,6.584,5.606,5.606,0,0,0,5,5l.039,0a31.223,31.223,0,0,0,5.089.29c1.087,0,1.875-.014,2.493-.039a6.579,6.579,0,0,1-1.987-4.718ZM6.168,6.241H16.4a1.117,1.117,0,1,1,0,2.233H6.17a1.117,1.117,0,1,1,0-2.233Zm0,7.011a1.117,1.117,0,1,1,0-2.234H12a1.117,1.117,0,1,1,0,2.234Z" fill="#f89800"/>
      <path id="Path_46199" data-name="Path 46199" d="M18.251,13.957a5.022,5.022,0,1,0,5.022,5.022,5.022,5.022,0,0,0-5.022-5.022Zm1.99,5.757h-2.09a.6.6,0,0,1-.6-.6V15.9a.6.6,0,1,1,1.2,0v2.613h1.492a.6.6,0,0,1,0,1.2Z" fill="#f89800"/>
    </g>
  </g>
</svg>
